solid zone0
 facet normal -1 0 0
  outer loop
   vertex 703.5 -3000 -1000
   vertex 703.5 -3000 -150
   vertex 703.5 -2200 -1000
  endloop
 endfacet
 facet normal -1 -0 -0
  outer loop
   vertex 703.5 -2200 -150
   vertex 703.5 -2200 -1000
   vertex 703.5 -3000 -150
  endloop
 endfacet
 facet normal -1 0 0
  outer loop
   vertex 703.5 -3000 -150
   vertex 703.5 -3000 700
   vertex 703.5 -2200 -150
  endloop
 endfacet
 facet normal -1 -0 -0
  outer loop
   vertex 703.5 -2200 700
   vertex 703.5 -2200 -150
   vertex 703.5 -3000 700
  endloop
 endfacet
 facet normal -1 0 0
  outer loop
   vertex 703.5 -3000 700
   vertex 703.5 -3000 1550
   vertex 703.5 -2200 700
  endloop
 endfacet
 facet normal -1 -0 -0
  outer loop
   vertex 703.5 -2200 1550
   vertex 703.5 -2200 700
   vertex 703.5 -3000 1550
  endloop
 endfacet
 facet normal -1 0 0
  outer loop
   vertex 703.5 -3000 1550
   vertex 703.5 -3000 2400
   vertex 703.5 -2200 1550
  endloop
 endfacet
 facet normal -1 -0 -0
  outer loop
   vertex 703.5 -2200 2400
   vertex 703.5 -2200 1550
   vertex 703.5 -3000 2400
  endloop
 endfacet
 facet normal -1 0 0
  outer loop
   vertex 703.5 -3000 2400
   vertex 703.5 -3000 3250
   vertex 703.5 -2200 2400
  endloop
 endfacet
 facet normal -1 -0 -0
  outer loop
   vertex 703.5 -2200 3250
   vertex 703.5 -2200 2400
   vertex 703.5 -3000 3250
  endloop
 endfacet
 facet normal -1 0 0
  outer loop
   vertex 703.5 -2200 -1000
   vertex 703.5 -2200 -150
   vertex 703.5 -1400 -1000
  endloop
 endfacet
 facet normal -1 -0 -0
  outer loop
   vertex 703.5 -1400 -150
   vertex 703.5 -1400 -1000
   vertex 703.5 -2200 -150
  endloop
 endfacet
 facet normal -1 0 0
  outer loop
   vertex 703.5 -2200 -150
   vertex 703.5 -2200 700
   vertex 703.5 -1400 -150
  endloop
 endfacet
 facet normal -1 -0 -0
  outer loop
   vertex 703.5 -1400 700
   vertex 703.5 -1400 -150
   vertex 703.5 -2200 700
  endloop
 endfacet
 facet normal -1 0 0
  outer loop
   vertex 703.5 -2200 700
   vertex 703.5 -2200 1550
   vertex 703.5 -1400 700
  endloop
 endfacet
 facet normal -1 -0 -0
  outer loop
   vertex 703.5 -1400 1550
   vertex 703.5 -1400 700
   vertex 703.5 -2200 1550
  endloop
 endfacet
 facet normal -1 0 0
  outer loop
   vertex 703.5 -2200 1550
   vertex 703.5 -2200 2400
   vertex 703.5 -1400 1550
  endloop
 endfacet
 facet normal -1 -0 -0
  outer loop
   vertex 703.5 -1400 2400
   vertex 703.5 -1400 1550
   vertex 703.5 -2200 2400
  endloop
 endfacet
 facet normal -1 0 0
  outer loop
   vertex 703.5 -2200 2400
   vertex 703.5 -2200 3250
   vertex 703.5 -1400 2400
  endloop
 endfacet
 facet normal -1 -0 -0
  outer loop
   vertex 703.5 -1400 3250
   vertex 703.5 -1400 2400
   vertex 703.5 -2200 3250
  endloop
 endfacet
 facet normal -1 0 0
  outer loop
   vertex 703.5 -1400 -1000
   vertex 703.5 -1400 -150
   vertex 703.5 -600 -1000
  endloop
 endfacet
 facet normal -1 -0 -0
  outer loop
   vertex 703.5 -600 -150
   vertex 703.5 -600 -1000
   vertex 703.5 -1400 -150
  endloop
 endfacet
 facet normal -1 0 0
  outer loop
   vertex 703.5 -1400 -150
   vertex 703.5 -1400 700
   vertex 703.5 -600 -150
  endloop
 endfacet
 facet normal -1 -0 -0
  outer loop
   vertex 703.5 -600 700
   vertex 703.5 -600 -150
   vertex 703.5 -1400 700
  endloop
 endfacet
 facet normal -1 0 0
  outer loop
   vertex 703.5 -1400 700
   vertex 703.5 -1400 1550
   vertex 703.5 -600 700
  endloop
 endfacet
 facet normal -1 -0 -0
  outer loop
   vertex 703.5 -600 1550
   vertex 703.5 -600 700
   vertex 703.5 -1400 1550
  endloop
 endfacet
 facet normal -1 0 0
  outer loop
   vertex 703.5 -1400 1550
   vertex 703.5 -1400 2400
   vertex 703.5 -600 1550
  endloop
 endfacet
 facet normal -1 -0 -0
  outer loop
   vertex 703.5 -600 2400
   vertex 703.5 -600 1550
   vertex 703.5 -1400 2400
  endloop
 endfacet
 facet normal -1 0 0
  outer loop
   vertex 703.5 -1400 2400
   vertex 703.5 -1400 3250
   vertex 703.5 -600 2400
  endloop
 endfacet
 facet normal -1 -0 -0
  outer loop
   vertex 703.5 -600 3250
   vertex 703.5 -600 2400
   vertex 703.5 -1400 3250
  endloop
 endfacet
 facet normal -1 0 0
  outer loop
   vertex 703.5 -600 -1000
   vertex 703.5 -600 -150
   vertex 703.5 200 -1000
  endloop
 endfacet
 facet normal -1 -0 -0
  outer loop
   vertex 703.5 200 -150
   vertex 703.5 200 -1000
   vertex 703.5 -600 -150
  endloop
 endfacet
 facet normal -1 0 0
  outer loop
   vertex 703.5 -600 -150
   vertex 703.5 -600 700
   vertex 703.5 200 -150
  endloop
 endfacet
 facet normal -1 -0 -0
  outer loop
   vertex 703.5 200 700
   vertex 703.5 200 -150
   vertex 703.5 -600 700
  endloop
 endfacet
 facet normal -1 0 0
  outer loop
   vertex 703.5 -600 700
   vertex 703.5 -600 1550
   vertex 703.5 200 700
  endloop
 endfacet
 facet normal -1 -0 -0
  outer loop
   vertex 703.5 200 1550
   vertex 703.5 200 700
   vertex 703.5 -600 1550
  endloop
 endfacet
 facet normal -1 0 0
  outer loop
   vertex 703.5 -600 1550
   vertex 703.5 -600 2400
   vertex 703.5 200 1550
  endloop
 endfacet
 facet normal -1 -0 -0
  outer loop
   vertex 703.5 200 2400
   vertex 703.5 200 1550
   vertex 703.5 -600 2400
  endloop
 endfacet
 facet normal -1 0 0
  outer loop
   vertex 703.5 -600 2400
   vertex 703.5 -600 3250
   vertex 703.5 200 2400
  endloop
 endfacet
 facet normal -1 -0 -0
  outer loop
   vertex 703.5 200 3250
   vertex 703.5 200 2400
   vertex 703.5 -600 3250
  endloop
 endfacet
 facet normal -1 0 0
  outer loop
   vertex 703.5 200 -1000
   vertex 703.5 200 -150
   vertex 703.5 1000 -1000
  endloop
 endfacet
 facet normal -1 -0 -0
  outer loop
   vertex 703.5 1000 -150
   vertex 703.5 1000 -1000
   vertex 703.5 200 -150
  endloop
 endfacet
 facet normal -1 0 0
  outer loop
   vertex 703.5 200 -150
   vertex 703.5 200 700
   vertex 703.5 1000 -150
  endloop
 endfacet
 facet normal -1 -0 -0
  outer loop
   vertex 703.5 1000 700
   vertex 703.5 1000 -150
   vertex 703.5 200 700
  endloop
 endfacet
 facet normal -1 0 0
  outer loop
   vertex 703.5 200 700
   vertex 703.5 200 1550
   vertex 703.5 1000 700
  endloop
 endfacet
 facet normal -1 -0 -0
  outer loop
   vertex 703.5 1000 1550
   vertex 703.5 1000 700
   vertex 703.5 200 1550
  endloop
 endfacet
 facet normal -1 0 0
  outer loop
   vertex 703.5 200 1550
   vertex 703.5 200 2400
   vertex 703.5 1000 1550
  endloop
 endfacet
 facet normal -1 -0 -0
  outer loop
   vertex 703.5 1000 2400
   vertex 703.5 1000 1550
   vertex 703.5 200 2400
  endloop
 endfacet
 facet normal -1 0 0
  outer loop
   vertex 703.5 200 2400
   vertex 703.5 200 3250
   vertex 703.5 1000 2400
  endloop
 endfacet
 facet normal -1 -0 -0
  outer loop
   vertex 703.5 1000 3250
   vertex 703.5 1000 2400
   vertex 703.5 200 3250
  endloop
 endfacet
 facet normal 1 -0 0
  outer loop
   vertex 796.5 -3000 3250
   vertex 796.5 -3000 2400
   vertex 796.5 -2200 3250
  endloop
 endfacet
 facet normal 1 0 -0
  outer loop
   vertex 796.5 -2200 2400
   vertex 796.5 -2200 3250
   vertex 796.5 -3000 2400
  endloop
 endfacet
 facet normal 1 -0 0
  outer loop
   vertex 796.5 -3000 2400
   vertex 796.5 -3000 1550
   vertex 796.5 -2200 2400
  endloop
 endfacet
 facet normal 1 0 -0
  outer loop
   vertex 796.5 -2200 1550
   vertex 796.5 -2200 2400
   vertex 796.5 -3000 1550
  endloop
 endfacet
 facet normal 1 -0 0
  outer loop
   vertex 796.5 -3000 1550
   vertex 796.5 -3000 700
   vertex 796.5 -2200 1550
  endloop
 endfacet
 facet normal 1 0 -0
  outer loop
   vertex 796.5 -2200 700
   vertex 796.5 -2200 1550
   vertex 796.5 -3000 700
  endloop
 endfacet
 facet normal 1 -0 0
  outer loop
   vertex 796.5 -3000 700
   vertex 796.5 -3000 -150
   vertex 796.5 -2200 700
  endloop
 endfacet
 facet normal 1 0 -0
  outer loop
   vertex 796.5 -2200 -150
   vertex 796.5 -2200 700
   vertex 796.5 -3000 -150
  endloop
 endfacet
 facet normal 1 -0 0
  outer loop
   vertex 796.5 -3000 -150
   vertex 796.5 -3000 -1000
   vertex 796.5 -2200 -150
  endloop
 endfacet
 facet normal 1 0 -0
  outer loop
   vertex 796.5 -2200 -1000
   vertex 796.5 -2200 -150
   vertex 796.5 -3000 -1000
  endloop
 endfacet
 facet normal 1 -0 0
  outer loop
   vertex 796.5 -2200 3250
   vertex 796.5 -2200 2400
   vertex 796.5 -1400 3250
  endloop
 endfacet
 facet normal 1 0 -0
  outer loop
   vertex 796.5 -1400 2400
   vertex 796.5 -1400 3250
   vertex 796.5 -2200 2400
  endloop
 endfacet
 facet normal 1 -0 0
  outer loop
   vertex 796.5 -2200 2400
   vertex 796.5 -2200 1550
   vertex 796.5 -1400 2400
  endloop
 endfacet
 facet normal 1 0 -0
  outer loop
   vertex 796.5 -1400 1550
   vertex 796.5 -1400 2400
   vertex 796.5 -2200 1550
  endloop
 endfacet
 facet normal 1 -0 0
  outer loop
   vertex 796.5 -2200 1550
   vertex 796.5 -2200 700
   vertex 796.5 -1400 1550
  endloop
 endfacet
 facet normal 1 0 -0
  outer loop
   vertex 796.5 -1400 700
   vertex 796.5 -1400 1550
   vertex 796.5 -2200 700
  endloop
 endfacet
 facet normal 1 -0 0
  outer loop
   vertex 796.5 -2200 700
   vertex 796.5 -2200 -150
   vertex 796.5 -1400 700
  endloop
 endfacet
 facet normal 1 0 -0
  outer loop
   vertex 796.5 -1400 -150
   vertex 796.5 -1400 700
   vertex 796.5 -2200 -150
  endloop
 endfacet
 facet normal 1 -0 0
  outer loop
   vertex 796.5 -2200 -150
   vertex 796.5 -2200 -1000
   vertex 796.5 -1400 -150
  endloop
 endfacet
 facet normal 1 0 -0
  outer loop
   vertex 796.5 -1400 -1000
   vertex 796.5 -1400 -150
   vertex 796.5 -2200 -1000
  endloop
 endfacet
 facet normal 1 -0 0
  outer loop
   vertex 796.5 -1400 3250
   vertex 796.5 -1400 2400
   vertex 796.5 -600 3250
  endloop
 endfacet
 facet normal 1 0 -0
  outer loop
   vertex 796.5 -600 2400
   vertex 796.5 -600 3250
   vertex 796.5 -1400 2400
  endloop
 endfacet
 facet normal 1 -0 0
  outer loop
   vertex 796.5 -1400 2400
   vertex 796.5 -1400 1550
   vertex 796.5 -600 2400
  endloop
 endfacet
 facet normal 1 0 -0
  outer loop
   vertex 796.5 -600 1550
   vertex 796.5 -600 2400
   vertex 796.5 -1400 1550
  endloop
 endfacet
 facet normal 1 -0 0
  outer loop
   vertex 796.5 -1400 1550
   vertex 796.5 -1400 700
   vertex 796.5 -600 1550
  endloop
 endfacet
 facet normal 1 0 -0
  outer loop
   vertex 796.5 -600 700
   vertex 796.5 -600 1550
   vertex 796.5 -1400 700
  endloop
 endfacet
 facet normal 1 -0 0
  outer loop
   vertex 796.5 -1400 700
   vertex 796.5 -1400 -150
   vertex 796.5 -600 700
  endloop
 endfacet
 facet normal 1 0 -0
  outer loop
   vertex 796.5 -600 -150
   vertex 796.5 -600 700
   vertex 796.5 -1400 -150
  endloop
 endfacet
 facet normal 1 -0 0
  outer loop
   vertex 796.5 -1400 -150
   vertex 796.5 -1400 -1000
   vertex 796.5 -600 -150
  endloop
 endfacet
 facet normal 1 0 -0
  outer loop
   vertex 796.5 -600 -1000
   vertex 796.5 -600 -150
   vertex 796.5 -1400 -1000
  endloop
 endfacet
 facet normal 1 -0 0
  outer loop
   vertex 796.5 -600 3250
   vertex 796.5 -600 2400
   vertex 796.5 200 3250
  endloop
 endfacet
 facet normal 1 0 -0
  outer loop
   vertex 796.5 200 2400
   vertex 796.5 200 3250
   vertex 796.5 -600 2400
  endloop
 endfacet
 facet normal 1 -0 0
  outer loop
   vertex 796.5 -600 2400
   vertex 796.5 -600 1550
   vertex 796.5 200 2400
  endloop
 endfacet
 facet normal 1 0 -0
  outer loop
   vertex 796.5 200 1550
   vertex 796.5 200 2400
   vertex 796.5 -600 1550
  endloop
 endfacet
 facet normal 1 -0 0
  outer loop
   vertex 796.5 -600 1550
   vertex 796.5 -600 700
   vertex 796.5 200 1550
  endloop
 endfacet
 facet normal 1 0 -0
  outer loop
   vertex 796.5 200 700
   vertex 796.5 200 1550
   vertex 796.5 -600 700
  endloop
 endfacet
 facet normal 1 -0 0
  outer loop
   vertex 796.5 -600 700
   vertex 796.5 -600 -150
   vertex 796.5 200 700
  endloop
 endfacet
 facet normal 1 0 -0
  outer loop
   vertex 796.5 200 -150
   vertex 796.5 200 700
   vertex 796.5 -600 -150
  endloop
 endfacet
 facet normal 1 -0 0
  outer loop
   vertex 796.5 -600 -150
   vertex 796.5 -600 -1000
   vertex 796.5 200 -150
  endloop
 endfacet
 facet normal 1 0 -0
  outer loop
   vertex 796.5 200 -1000
   vertex 796.5 200 -150
   vertex 796.5 -600 -1000
  endloop
 endfacet
 facet normal 1 -0 0
  outer loop
   vertex 796.5 200 3250
   vertex 796.5 200 2400
   vertex 796.5 1000 3250
  endloop
 endfacet
 facet normal 1 0 -0
  outer loop
   vertex 796.5 1000 2400
   vertex 796.5 1000 3250
   vertex 796.5 200 2400
  endloop
 endfacet
 facet normal 1 -0 0
  outer loop
   vertex 796.5 200 2400
   vertex 796.5 200 1550
   vertex 796.5 1000 2400
  endloop
 endfacet
 facet normal 1 0 -0
  outer loop
   vertex 796.5 1000 1550
   vertex 796.5 1000 2400
   vertex 796.5 200 1550
  endloop
 endfacet
 facet normal 1 -0 0
  outer loop
   vertex 796.5 200 1550
   vertex 796.5 200 700
   vertex 796.5 1000 1550
  endloop
 endfacet
 facet normal 1 0 -0
  outer loop
   vertex 796.5 1000 700
   vertex 796.5 1000 1550
   vertex 796.5 200 700
  endloop
 endfacet
 facet normal 1 -0 0
  outer loop
   vertex 796.5 200 700
   vertex 796.5 200 -150
   vertex 796.5 1000 700
  endloop
 endfacet
 facet normal 1 0 -0
  outer loop
   vertex 796.5 1000 -150
   vertex 796.5 1000 700
   vertex 796.5 200 -150
  endloop
 endfacet
 facet normal 1 -0 0
  outer loop
   vertex 796.5 200 -150
   vertex 796.5 200 -1000
   vertex 796.5 1000 -150
  endloop
 endfacet
 facet normal 1 0 -0
  outer loop
   vertex 796.5 1000 -1000
   vertex 796.5 1000 -150
   vertex 796.5 200 -1000
  endloop
 endfacet
 facet normal 0 -1 0
  outer loop
   vertex 703.5 -3000 -1000
   vertex 722.1 -3000 -1000
   vertex 703.5 -3000 -150
  endloop
 endfacet
 facet normal -0 -1 -0
  outer loop
   vertex 722.1 -3000 -150
   vertex 703.5 -3000 -150
   vertex 722.1 -3000 -1000
  endloop
 endfacet
 facet normal 0 -1 0
  outer loop
   vertex 722.1 -3000 -1000
   vertex 740.7 -3000 -1000
   vertex 722.1 -3000 -150
  endloop
 endfacet
 facet normal -0 -1 -0
  outer loop
   vertex 740.7 -3000 -150
   vertex 722.1 -3000 -150
   vertex 740.7 -3000 -1000
  endloop
 endfacet
 facet normal 0 -1 0
  outer loop
   vertex 740.7 -3000 -1000
   vertex 759.3 -3000 -1000
   vertex 740.7 -3000 -150
  endloop
 endfacet
 facet normal -0 -1 -0
  outer loop
   vertex 759.3 -3000 -150
   vertex 740.7 -3000 -150
   vertex 759.3 -3000 -1000
  endloop
 endfacet
 facet normal 0 -1 0
  outer loop
   vertex 759.3 -3000 -1000
   vertex 777.9 -3000 -1000
   vertex 759.3 -3000 -150
  endloop
 endfacet
 facet normal -0 -1 -0
  outer loop
   vertex 777.9 -3000 -150
   vertex 759.3 -3000 -150
   vertex 777.9 -3000 -1000
  endloop
 endfacet
 facet normal 0 -1 0
  outer loop
   vertex 777.9 -3000 -1000
   vertex 796.5 -3000 -1000
   vertex 777.9 -3000 -150
  endloop
 endfacet
 facet normal -0 -1 -0
  outer loop
   vertex 796.5 -3000 -150
   vertex 777.9 -3000 -150
   vertex 796.5 -3000 -1000
  endloop
 endfacet
 facet normal 0 -1 0
  outer loop
   vertex 703.5 -3000 -150
   vertex 722.1 -3000 -150
   vertex 703.5 -3000 700
  endloop
 endfacet
 facet normal -0 -1 -0
  outer loop
   vertex 722.1 -3000 700
   vertex 703.5 -3000 700
   vertex 722.1 -3000 -150
  endloop
 endfacet
 facet normal 0 -1 0
  outer loop
   vertex 722.1 -3000 -150
   vertex 740.7 -3000 -150
   vertex 722.1 -3000 700
  endloop
 endfacet
 facet normal -0 -1 -0
  outer loop
   vertex 740.7 -3000 700
   vertex 722.1 -3000 700
   vertex 740.7 -3000 -150
  endloop
 endfacet
 facet normal 0 -1 0
  outer loop
   vertex 740.7 -3000 -150
   vertex 759.3 -3000 -150
   vertex 740.7 -3000 700
  endloop
 endfacet
 facet normal -0 -1 -0
  outer loop
   vertex 759.3 -3000 700
   vertex 740.7 -3000 700
   vertex 759.3 -3000 -150
  endloop
 endfacet
 facet normal 0 -1 0
  outer loop
   vertex 759.3 -3000 -150
   vertex 777.9 -3000 -150
   vertex 759.3 -3000 700
  endloop
 endfacet
 facet normal -0 -1 -0
  outer loop
   vertex 777.9 -3000 700
   vertex 759.3 -3000 700
   vertex 777.9 -3000 -150
  endloop
 endfacet
 facet normal 0 -1 0
  outer loop
   vertex 777.9 -3000 -150
   vertex 796.5 -3000 -150
   vertex 777.9 -3000 700
  endloop
 endfacet
 facet normal -0 -1 -0
  outer loop
   vertex 796.5 -3000 700
   vertex 777.9 -3000 700
   vertex 796.5 -3000 -150
  endloop
 endfacet
 facet normal 0 -1 0
  outer loop
   vertex 703.5 -3000 700
   vertex 722.1 -3000 700
   vertex 703.5 -3000 1550
  endloop
 endfacet
 facet normal -0 -1 -0
  outer loop
   vertex 722.1 -3000 1550
   vertex 703.5 -3000 1550
   vertex 722.1 -3000 700
  endloop
 endfacet
 facet normal 0 -1 0
  outer loop
   vertex 722.1 -3000 700
   vertex 740.7 -3000 700
   vertex 722.1 -3000 1550
  endloop
 endfacet
 facet normal -0 -1 -0
  outer loop
   vertex 740.7 -3000 1550
   vertex 722.1 -3000 1550
   vertex 740.7 -3000 700
  endloop
 endfacet
 facet normal 0 -1 0
  outer loop
   vertex 740.7 -3000 700
   vertex 759.3 -3000 700
   vertex 740.7 -3000 1550
  endloop
 endfacet
 facet normal -0 -1 -0
  outer loop
   vertex 759.3 -3000 1550
   vertex 740.7 -3000 1550
   vertex 759.3 -3000 700
  endloop
 endfacet
 facet normal 0 -1 0
  outer loop
   vertex 759.3 -3000 700
   vertex 777.9 -3000 700
   vertex 759.3 -3000 1550
  endloop
 endfacet
 facet normal -0 -1 -0
  outer loop
   vertex 777.9 -3000 1550
   vertex 759.3 -3000 1550
   vertex 777.9 -3000 700
  endloop
 endfacet
 facet normal 0 -1 0
  outer loop
   vertex 777.9 -3000 700
   vertex 796.5 -3000 700
   vertex 777.9 -3000 1550
  endloop
 endfacet
 facet normal -0 -1 -0
  outer loop
   vertex 796.5 -3000 1550
   vertex 777.9 -3000 1550
   vertex 796.5 -3000 700
  endloop
 endfacet
 facet normal 0 -1 0
  outer loop
   vertex 703.5 -3000 1550
   vertex 722.1 -3000 1550
   vertex 703.5 -3000 2400
  endloop
 endfacet
 facet normal -0 -1 -0
  outer loop
   vertex 722.1 -3000 2400
   vertex 703.5 -3000 2400
   vertex 722.1 -3000 1550
  endloop
 endfacet
 facet normal 0 -1 0
  outer loop
   vertex 722.1 -3000 1550
   vertex 740.7 -3000 1550
   vertex 722.1 -3000 2400
  endloop
 endfacet
 facet normal -0 -1 -0
  outer loop
   vertex 740.7 -3000 2400
   vertex 722.1 -3000 2400
   vertex 740.7 -3000 1550
  endloop
 endfacet
 facet normal 0 -1 0
  outer loop
   vertex 740.7 -3000 1550
   vertex 759.3 -3000 1550
   vertex 740.7 -3000 2400
  endloop
 endfacet
 facet normal -0 -1 -0
  outer loop
   vertex 759.3 -3000 2400
   vertex 740.7 -3000 2400
   vertex 759.3 -3000 1550
  endloop
 endfacet
 facet normal 0 -1 0
  outer loop
   vertex 759.3 -3000 1550
   vertex 777.9 -3000 1550
   vertex 759.3 -3000 2400
  endloop
 endfacet
 facet normal -0 -1 -0
  outer loop
   vertex 777.9 -3000 2400
   vertex 759.3 -3000 2400
   vertex 777.9 -3000 1550
  endloop
 endfacet
 facet normal 0 -1 0
  outer loop
   vertex 777.9 -3000 1550
   vertex 796.5 -3000 1550
   vertex 777.9 -3000 2400
  endloop
 endfacet
 facet normal -0 -1 -0
  outer loop
   vertex 796.5 -3000 2400
   vertex 777.9 -3000 2400
   vertex 796.5 -3000 1550
  endloop
 endfacet
 facet normal 0 -1 0
  outer loop
   vertex 703.5 -3000 2400
   vertex 722.1 -3000 2400
   vertex 703.5 -3000 3250
  endloop
 endfacet
 facet normal -0 -1 -0
  outer loop
   vertex 722.1 -3000 3250
   vertex 703.5 -3000 3250
   vertex 722.1 -3000 2400
  endloop
 endfacet
 facet normal 0 -1 0
  outer loop
   vertex 722.1 -3000 2400
   vertex 740.7 -3000 2400
   vertex 722.1 -3000 3250
  endloop
 endfacet
 facet normal -0 -1 -0
  outer loop
   vertex 740.7 -3000 3250
   vertex 722.1 -3000 3250
   vertex 740.7 -3000 2400
  endloop
 endfacet
 facet normal 0 -1 0
  outer loop
   vertex 740.7 -3000 2400
   vertex 759.3 -3000 2400
   vertex 740.7 -3000 3250
  endloop
 endfacet
 facet normal -0 -1 -0
  outer loop
   vertex 759.3 -3000 3250
   vertex 740.7 -3000 3250
   vertex 759.3 -3000 2400
  endloop
 endfacet
 facet normal 0 -1 0
  outer loop
   vertex 759.3 -3000 2400
   vertex 777.9 -3000 2400
   vertex 759.3 -3000 3250
  endloop
 endfacet
 facet normal -0 -1 -0
  outer loop
   vertex 777.9 -3000 3250
   vertex 759.3 -3000 3250
   vertex 777.9 -3000 2400
  endloop
 endfacet
 facet normal 0 -1 0
  outer loop
   vertex 777.9 -3000 2400
   vertex 796.5 -3000 2400
   vertex 777.9 -3000 3250
  endloop
 endfacet
 facet normal -0 -1 -0
  outer loop
   vertex 796.5 -3000 3250
   vertex 777.9 -3000 3250
   vertex 796.5 -3000 2400
  endloop
 endfacet
 facet normal -0 1 0
  outer loop
   vertex 703.5 1000 3250
   vertex 722.1 1000 3250
   vertex 703.5 1000 2400
  endloop
 endfacet
 facet normal 0 1 -0
  outer loop
   vertex 722.1 1000 2400
   vertex 703.5 1000 2400
   vertex 722.1 1000 3250
  endloop
 endfacet
 facet normal -0 1 0
  outer loop
   vertex 722.1 1000 3250
   vertex 740.7 1000 3250
   vertex 722.1 1000 2400
  endloop
 endfacet
 facet normal 0 1 -0
  outer loop
   vertex 740.7 1000 2400
   vertex 722.1 1000 2400
   vertex 740.7 1000 3250
  endloop
 endfacet
 facet normal -0 1 0
  outer loop
   vertex 740.7 1000 3250
   vertex 759.3 1000 3250
   vertex 740.7 1000 2400
  endloop
 endfacet
 facet normal 0 1 -0
  outer loop
   vertex 759.3 1000 2400
   vertex 740.7 1000 2400
   vertex 759.3 1000 3250
  endloop
 endfacet
 facet normal -0 1 0
  outer loop
   vertex 759.3 1000 3250
   vertex 777.9 1000 3250
   vertex 759.3 1000 2400
  endloop
 endfacet
 facet normal 0 1 -0
  outer loop
   vertex 777.9 1000 2400
   vertex 759.3 1000 2400
   vertex 777.9 1000 3250
  endloop
 endfacet
 facet normal -0 1 0
  outer loop
   vertex 777.9 1000 3250
   vertex 796.5 1000 3250
   vertex 777.9 1000 2400
  endloop
 endfacet
 facet normal 0 1 -0
  outer loop
   vertex 796.5 1000 2400
   vertex 777.9 1000 2400
   vertex 796.5 1000 3250
  endloop
 endfacet
 facet normal -0 1 0
  outer loop
   vertex 703.5 1000 2400
   vertex 722.1 1000 2400
   vertex 703.5 1000 1550
  endloop
 endfacet
 facet normal 0 1 -0
  outer loop
   vertex 722.1 1000 1550
   vertex 703.5 1000 1550
   vertex 722.1 1000 2400
  endloop
 endfacet
 facet normal -0 1 0
  outer loop
   vertex 722.1 1000 2400
   vertex 740.7 1000 2400
   vertex 722.1 1000 1550
  endloop
 endfacet
 facet normal 0 1 -0
  outer loop
   vertex 740.7 1000 1550
   vertex 722.1 1000 1550
   vertex 740.7 1000 2400
  endloop
 endfacet
 facet normal -0 1 0
  outer loop
   vertex 740.7 1000 2400
   vertex 759.3 1000 2400
   vertex 740.7 1000 1550
  endloop
 endfacet
 facet normal 0 1 -0
  outer loop
   vertex 759.3 1000 1550
   vertex 740.7 1000 1550
   vertex 759.3 1000 2400
  endloop
 endfacet
 facet normal -0 1 0
  outer loop
   vertex 759.3 1000 2400
   vertex 777.9 1000 2400
   vertex 759.3 1000 1550
  endloop
 endfacet
 facet normal 0 1 -0
  outer loop
   vertex 777.9 1000 1550
   vertex 759.3 1000 1550
   vertex 777.9 1000 2400
  endloop
 endfacet
 facet normal -0 1 0
  outer loop
   vertex 777.9 1000 2400
   vertex 796.5 1000 2400
   vertex 777.9 1000 1550
  endloop
 endfacet
 facet normal 0 1 -0
  outer loop
   vertex 796.5 1000 1550
   vertex 777.9 1000 1550
   vertex 796.5 1000 2400
  endloop
 endfacet
 facet normal -0 1 0
  outer loop
   vertex 703.5 1000 1550
   vertex 722.1 1000 1550
   vertex 703.5 1000 700
  endloop
 endfacet
 facet normal 0 1 -0
  outer loop
   vertex 722.1 1000 700
   vertex 703.5 1000 700
   vertex 722.1 1000 1550
  endloop
 endfacet
 facet normal -0 1 0
  outer loop
   vertex 722.1 1000 1550
   vertex 740.7 1000 1550
   vertex 722.1 1000 700
  endloop
 endfacet
 facet normal 0 1 -0
  outer loop
   vertex 740.7 1000 700
   vertex 722.1 1000 700
   vertex 740.7 1000 1550
  endloop
 endfacet
 facet normal -0 1 0
  outer loop
   vertex 740.7 1000 1550
   vertex 759.3 1000 1550
   vertex 740.7 1000 700
  endloop
 endfacet
 facet normal 0 1 -0
  outer loop
   vertex 759.3 1000 700
   vertex 740.7 1000 700
   vertex 759.3 1000 1550
  endloop
 endfacet
 facet normal -0 1 0
  outer loop
   vertex 759.3 1000 1550
   vertex 777.9 1000 1550
   vertex 759.3 1000 700
  endloop
 endfacet
 facet normal 0 1 -0
  outer loop
   vertex 777.9 1000 700
   vertex 759.3 1000 700
   vertex 777.9 1000 1550
  endloop
 endfacet
 facet normal -0 1 0
  outer loop
   vertex 777.9 1000 1550
   vertex 796.5 1000 1550
   vertex 777.9 1000 700
  endloop
 endfacet
 facet normal 0 1 -0
  outer loop
   vertex 796.5 1000 700
   vertex 777.9 1000 700
   vertex 796.5 1000 1550
  endloop
 endfacet
 facet normal -0 1 0
  outer loop
   vertex 703.5 1000 700
   vertex 722.1 1000 700
   vertex 703.5 1000 -150
  endloop
 endfacet
 facet normal 0 1 -0
  outer loop
   vertex 722.1 1000 -150
   vertex 703.5 1000 -150
   vertex 722.1 1000 700
  endloop
 endfacet
 facet normal -0 1 0
  outer loop
   vertex 722.1 1000 700
   vertex 740.7 1000 700
   vertex 722.1 1000 -150
  endloop
 endfacet
 facet normal 0 1 -0
  outer loop
   vertex 740.7 1000 -150
   vertex 722.1 1000 -150
   vertex 740.7 1000 700
  endloop
 endfacet
 facet normal -0 1 0
  outer loop
   vertex 740.7 1000 700
   vertex 759.3 1000 700
   vertex 740.7 1000 -150
  endloop
 endfacet
 facet normal 0 1 -0
  outer loop
   vertex 759.3 1000 -150
   vertex 740.7 1000 -150
   vertex 759.3 1000 700
  endloop
 endfacet
 facet normal -0 1 0
  outer loop
   vertex 759.3 1000 700
   vertex 777.9 1000 700
   vertex 759.3 1000 -150
  endloop
 endfacet
 facet normal 0 1 -0
  outer loop
   vertex 777.9 1000 -150
   vertex 759.3 1000 -150
   vertex 777.9 1000 700
  endloop
 endfacet
 facet normal -0 1 0
  outer loop
   vertex 777.9 1000 700
   vertex 796.5 1000 700
   vertex 777.9 1000 -150
  endloop
 endfacet
 facet normal 0 1 -0
  outer loop
   vertex 796.5 1000 -150
   vertex 777.9 1000 -150
   vertex 796.5 1000 700
  endloop
 endfacet
 facet normal -0 1 0
  outer loop
   vertex 703.5 1000 -150
   vertex 722.1 1000 -150
   vertex 703.5 1000 -1000
  endloop
 endfacet
 facet normal 0 1 -0
  outer loop
   vertex 722.1 1000 -1000
   vertex 703.5 1000 -1000
   vertex 722.1 1000 -150
  endloop
 endfacet
 facet normal -0 1 0
  outer loop
   vertex 722.1 1000 -150
   vertex 740.7 1000 -150
   vertex 722.1 1000 -1000
  endloop
 endfacet
 facet normal 0 1 -0
  outer loop
   vertex 740.7 1000 -1000
   vertex 722.1 1000 -1000
   vertex 740.7 1000 -150
  endloop
 endfacet
 facet normal -0 1 0
  outer loop
   vertex 740.7 1000 -150
   vertex 759.3 1000 -150
   vertex 740.7 1000 -1000
  endloop
 endfacet
 facet normal 0 1 -0
  outer loop
   vertex 759.3 1000 -1000
   vertex 740.7 1000 -1000
   vertex 759.3 1000 -150
  endloop
 endfacet
 facet normal -0 1 0
  outer loop
   vertex 759.3 1000 -150
   vertex 777.9 1000 -150
   vertex 759.3 1000 -1000
  endloop
 endfacet
 facet normal 0 1 -0
  outer loop
   vertex 777.9 1000 -1000
   vertex 759.3 1000 -1000
   vertex 777.9 1000 -150
  endloop
 endfacet
 facet normal -0 1 0
  outer loop
   vertex 777.9 1000 -150
   vertex 796.5 1000 -150
   vertex 777.9 1000 -1000
  endloop
 endfacet
 facet normal 0 1 -0
  outer loop
   vertex 796.5 1000 -1000
   vertex 777.9 1000 -1000
   vertex 796.5 1000 -150
  endloop
 endfacet
 facet normal 0 0 -1
  outer loop
   vertex 796.5 -3000 -1000
   vertex 777.9 -3000 -1000
   vertex 796.5 -2200 -1000
  endloop
 endfacet
 facet normal 0 0 -1
  outer loop
   vertex 777.9 -2200 -1000
   vertex 796.5 -2200 -1000
   vertex 777.9 -3000 -1000
  endloop
 endfacet
 facet normal 0 0 -1
  outer loop
   vertex 777.9 -3000 -1000
   vertex 759.3 -3000 -1000
   vertex 777.9 -2200 -1000
  endloop
 endfacet
 facet normal 0 0 -1
  outer loop
   vertex 759.3 -2200 -1000
   vertex 777.9 -2200 -1000
   vertex 759.3 -3000 -1000
  endloop
 endfacet
 facet normal 0 0 -1
  outer loop
   vertex 759.3 -3000 -1000
   vertex 740.7 -3000 -1000
   vertex 759.3 -2200 -1000
  endloop
 endfacet
 facet normal 0 0 -1
  outer loop
   vertex 740.7 -2200 -1000
   vertex 759.3 -2200 -1000
   vertex 740.7 -3000 -1000
  endloop
 endfacet
 facet normal 0 0 -1
  outer loop
   vertex 740.7 -3000 -1000
   vertex 722.1 -3000 -1000
   vertex 740.7 -2200 -1000
  endloop
 endfacet
 facet normal 0 0 -1
  outer loop
   vertex 722.1 -2200 -1000
   vertex 740.7 -2200 -1000
   vertex 722.1 -3000 -1000
  endloop
 endfacet
 facet normal 0 0 -1
  outer loop
   vertex 722.1 -3000 -1000
   vertex 703.5 -3000 -1000
   vertex 722.1 -2200 -1000
  endloop
 endfacet
 facet normal 0 0 -1
  outer loop
   vertex 703.5 -2200 -1000
   vertex 722.1 -2200 -1000
   vertex 703.5 -3000 -1000
  endloop
 endfacet
 facet normal 0 0 -1
  outer loop
   vertex 796.5 -2200 -1000
   vertex 777.9 -2200 -1000
   vertex 796.5 -1400 -1000
  endloop
 endfacet
 facet normal 0 0 -1
  outer loop
   vertex 777.9 -1400 -1000
   vertex 796.5 -1400 -1000
   vertex 777.9 -2200 -1000
  endloop
 endfacet
 facet normal 0 0 -1
  outer loop
   vertex 777.9 -2200 -1000
   vertex 759.3 -2200 -1000
   vertex 777.9 -1400 -1000
  endloop
 endfacet
 facet normal 0 0 -1
  outer loop
   vertex 759.3 -1400 -1000
   vertex 777.9 -1400 -1000
   vertex 759.3 -2200 -1000
  endloop
 endfacet
 facet normal 0 0 -1
  outer loop
   vertex 759.3 -2200 -1000
   vertex 740.7 -2200 -1000
   vertex 759.3 -1400 -1000
  endloop
 endfacet
 facet normal 0 0 -1
  outer loop
   vertex 740.7 -1400 -1000
   vertex 759.3 -1400 -1000
   vertex 740.7 -2200 -1000
  endloop
 endfacet
 facet normal 0 0 -1
  outer loop
   vertex 740.7 -2200 -1000
   vertex 722.1 -2200 -1000
   vertex 740.7 -1400 -1000
  endloop
 endfacet
 facet normal 0 0 -1
  outer loop
   vertex 722.1 -1400 -1000
   vertex 740.7 -1400 -1000
   vertex 722.1 -2200 -1000
  endloop
 endfacet
 facet normal 0 0 -1
  outer loop
   vertex 722.1 -2200 -1000
   vertex 703.5 -2200 -1000
   vertex 722.1 -1400 -1000
  endloop
 endfacet
 facet normal 0 0 -1
  outer loop
   vertex 703.5 -1400 -1000
   vertex 722.1 -1400 -1000
   vertex 703.5 -2200 -1000
  endloop
 endfacet
 facet normal 0 0 -1
  outer loop
   vertex 796.5 -1400 -1000
   vertex 777.9 -1400 -1000
   vertex 796.5 -600 -1000
  endloop
 endfacet
 facet normal 0 0 -1
  outer loop
   vertex 777.9 -600 -1000
   vertex 796.5 -600 -1000
   vertex 777.9 -1400 -1000
  endloop
 endfacet
 facet normal 0 0 -1
  outer loop
   vertex 777.9 -1400 -1000
   vertex 759.3 -1400 -1000
   vertex 777.9 -600 -1000
  endloop
 endfacet
 facet normal 0 0 -1
  outer loop
   vertex 759.3 -600 -1000
   vertex 777.9 -600 -1000
   vertex 759.3 -1400 -1000
  endloop
 endfacet
 facet normal 0 0 -1
  outer loop
   vertex 759.3 -1400 -1000
   vertex 740.7 -1400 -1000
   vertex 759.3 -600 -1000
  endloop
 endfacet
 facet normal 0 0 -1
  outer loop
   vertex 740.7 -600 -1000
   vertex 759.3 -600 -1000
   vertex 740.7 -1400 -1000
  endloop
 endfacet
 facet normal 0 0 -1
  outer loop
   vertex 740.7 -1400 -1000
   vertex 722.1 -1400 -1000
   vertex 740.7 -600 -1000
  endloop
 endfacet
 facet normal 0 0 -1
  outer loop
   vertex 722.1 -600 -1000
   vertex 740.7 -600 -1000
   vertex 722.1 -1400 -1000
  endloop
 endfacet
 facet normal 0 0 -1
  outer loop
   vertex 722.1 -1400 -1000
   vertex 703.5 -1400 -1000
   vertex 722.1 -600 -1000
  endloop
 endfacet
 facet normal 0 0 -1
  outer loop
   vertex 703.5 -600 -1000
   vertex 722.1 -600 -1000
   vertex 703.5 -1400 -1000
  endloop
 endfacet
 facet normal 0 0 -1
  outer loop
   vertex 796.5 -600 -1000
   vertex 777.9 -600 -1000
   vertex 796.5 200 -1000
  endloop
 endfacet
 facet normal 0 0 -1
  outer loop
   vertex 777.9 200 -1000
   vertex 796.5 200 -1000
   vertex 777.9 -600 -1000
  endloop
 endfacet
 facet normal 0 0 -1
  outer loop
   vertex 777.9 -600 -1000
   vertex 759.3 -600 -1000
   vertex 777.9 200 -1000
  endloop
 endfacet
 facet normal 0 0 -1
  outer loop
   vertex 759.3 200 -1000
   vertex 777.9 200 -1000
   vertex 759.3 -600 -1000
  endloop
 endfacet
 facet normal 0 0 -1
  outer loop
   vertex 759.3 -600 -1000
   vertex 740.7 -600 -1000
   vertex 759.3 200 -1000
  endloop
 endfacet
 facet normal 0 0 -1
  outer loop
   vertex 740.7 200 -1000
   vertex 759.3 200 -1000
   vertex 740.7 -600 -1000
  endloop
 endfacet
 facet normal 0 0 -1
  outer loop
   vertex 740.7 -600 -1000
   vertex 722.1 -600 -1000
   vertex 740.7 200 -1000
  endloop
 endfacet
 facet normal 0 0 -1
  outer loop
   vertex 722.1 200 -1000
   vertex 740.7 200 -1000
   vertex 722.1 -600 -1000
  endloop
 endfacet
 facet normal 0 0 -1
  outer loop
   vertex 722.1 -600 -1000
   vertex 703.5 -600 -1000
   vertex 722.1 200 -1000
  endloop
 endfacet
 facet normal 0 0 -1
  outer loop
   vertex 703.5 200 -1000
   vertex 722.1 200 -1000
   vertex 703.5 -600 -1000
  endloop
 endfacet
 facet normal 0 0 -1
  outer loop
   vertex 796.5 200 -1000
   vertex 777.9 200 -1000
   vertex 796.5 1000 -1000
  endloop
 endfacet
 facet normal 0 0 -1
  outer loop
   vertex 777.9 1000 -1000
   vertex 796.5 1000 -1000
   vertex 777.9 200 -1000
  endloop
 endfacet
 facet normal 0 0 -1
  outer loop
   vertex 777.9 200 -1000
   vertex 759.3 200 -1000
   vertex 777.9 1000 -1000
  endloop
 endfacet
 facet normal 0 0 -1
  outer loop
   vertex 759.3 1000 -1000
   vertex 777.9 1000 -1000
   vertex 759.3 200 -1000
  endloop
 endfacet
 facet normal 0 0 -1
  outer loop
   vertex 759.3 200 -1000
   vertex 740.7 200 -1000
   vertex 759.3 1000 -1000
  endloop
 endfacet
 facet normal 0 0 -1
  outer loop
   vertex 740.7 1000 -1000
   vertex 759.3 1000 -1000
   vertex 740.7 200 -1000
  endloop
 endfacet
 facet normal 0 0 -1
  outer loop
   vertex 740.7 200 -1000
   vertex 722.1 200 -1000
   vertex 740.7 1000 -1000
  endloop
 endfacet
 facet normal 0 0 -1
  outer loop
   vertex 722.1 1000 -1000
   vertex 740.7 1000 -1000
   vertex 722.1 200 -1000
  endloop
 endfacet
 facet normal 0 0 -1
  outer loop
   vertex 722.1 200 -1000
   vertex 703.5 200 -1000
   vertex 722.1 1000 -1000
  endloop
 endfacet
 facet normal 0 0 -1
  outer loop
   vertex 703.5 1000 -1000
   vertex 722.1 1000 -1000
   vertex 703.5 200 -1000
  endloop
 endfacet
 facet normal 0 0 1
  outer loop
   vertex 703.5 -3000 3250
   vertex 722.1 -3000 3250
   vertex 703.5 -2200 3250
  endloop
 endfacet
 facet normal 0 0 1
  outer loop
   vertex 722.1 -2200 3250
   vertex 703.5 -2200 3250
   vertex 722.1 -3000 3250
  endloop
 endfacet
 facet normal 0 0 1
  outer loop
   vertex 722.1 -3000 3250
   vertex 740.7 -3000 3250
   vertex 722.1 -2200 3250
  endloop
 endfacet
 facet normal 0 0 1
  outer loop
   vertex 740.7 -2200 3250
   vertex 722.1 -2200 3250
   vertex 740.7 -3000 3250
  endloop
 endfacet
 facet normal 0 0 1
  outer loop
   vertex 740.7 -3000 3250
   vertex 759.3 -3000 3250
   vertex 740.7 -2200 3250
  endloop
 endfacet
 facet normal 0 0 1
  outer loop
   vertex 759.3 -2200 3250
   vertex 740.7 -2200 3250
   vertex 759.3 -3000 3250
  endloop
 endfacet
 facet normal 0 0 1
  outer loop
   vertex 759.3 -3000 3250
   vertex 777.9 -3000 3250
   vertex 759.3 -2200 3250
  endloop
 endfacet
 facet normal 0 0 1
  outer loop
   vertex 777.9 -2200 3250
   vertex 759.3 -2200 3250
   vertex 777.9 -3000 3250
  endloop
 endfacet
 facet normal 0 0 1
  outer loop
   vertex 777.9 -3000 3250
   vertex 796.5 -3000 3250
   vertex 777.9 -2200 3250
  endloop
 endfacet
 facet normal 0 0 1
  outer loop
   vertex 796.5 -2200 3250
   vertex 777.9 -2200 3250
   vertex 796.5 -3000 3250
  endloop
 endfacet
 facet normal 0 0 1
  outer loop
   vertex 703.5 -2200 3250
   vertex 722.1 -2200 3250
   vertex 703.5 -1400 3250
  endloop
 endfacet
 facet normal 0 0 1
  outer loop
   vertex 722.1 -1400 3250
   vertex 703.5 -1400 3250
   vertex 722.1 -2200 3250
  endloop
 endfacet
 facet normal 0 0 1
  outer loop
   vertex 722.1 -2200 3250
   vertex 740.7 -2200 3250
   vertex 722.1 -1400 3250
  endloop
 endfacet
 facet normal 0 0 1
  outer loop
   vertex 740.7 -1400 3250
   vertex 722.1 -1400 3250
   vertex 740.7 -2200 3250
  endloop
 endfacet
 facet normal 0 0 1
  outer loop
   vertex 740.7 -2200 3250
   vertex 759.3 -2200 3250
   vertex 740.7 -1400 3250
  endloop
 endfacet
 facet normal 0 0 1
  outer loop
   vertex 759.3 -1400 3250
   vertex 740.7 -1400 3250
   vertex 759.3 -2200 3250
  endloop
 endfacet
 facet normal 0 0 1
  outer loop
   vertex 759.3 -2200 3250
   vertex 777.9 -2200 3250
   vertex 759.3 -1400 3250
  endloop
 endfacet
 facet normal 0 0 1
  outer loop
   vertex 777.9 -1400 3250
   vertex 759.3 -1400 3250
   vertex 777.9 -2200 3250
  endloop
 endfacet
 facet normal 0 0 1
  outer loop
   vertex 777.9 -2200 3250
   vertex 796.5 -2200 3250
   vertex 777.9 -1400 3250
  endloop
 endfacet
 facet normal 0 0 1
  outer loop
   vertex 796.5 -1400 3250
   vertex 777.9 -1400 3250
   vertex 796.5 -2200 3250
  endloop
 endfacet
 facet normal 0 0 1
  outer loop
   vertex 703.5 -1400 3250
   vertex 722.1 -1400 3250
   vertex 703.5 -600 3250
  endloop
 endfacet
 facet normal 0 0 1
  outer loop
   vertex 722.1 -600 3250
   vertex 703.5 -600 3250
   vertex 722.1 -1400 3250
  endloop
 endfacet
 facet normal 0 0 1
  outer loop
   vertex 722.1 -1400 3250
   vertex 740.7 -1400 3250
   vertex 722.1 -600 3250
  endloop
 endfacet
 facet normal 0 0 1
  outer loop
   vertex 740.7 -600 3250
   vertex 722.1 -600 3250
   vertex 740.7 -1400 3250
  endloop
 endfacet
 facet normal 0 0 1
  outer loop
   vertex 740.7 -1400 3250
   vertex 759.3 -1400 3250
   vertex 740.7 -600 3250
  endloop
 endfacet
 facet normal 0 0 1
  outer loop
   vertex 759.3 -600 3250
   vertex 740.7 -600 3250
   vertex 759.3 -1400 3250
  endloop
 endfacet
 facet normal 0 0 1
  outer loop
   vertex 759.3 -1400 3250
   vertex 777.9 -1400 3250
   vertex 759.3 -600 3250
  endloop
 endfacet
 facet normal 0 0 1
  outer loop
   vertex 777.9 -600 3250
   vertex 759.3 -600 3250
   vertex 777.9 -1400 3250
  endloop
 endfacet
 facet normal 0 0 1
  outer loop
   vertex 777.9 -1400 3250
   vertex 796.5 -1400 3250
   vertex 777.9 -600 3250
  endloop
 endfacet
 facet normal 0 0 1
  outer loop
   vertex 796.5 -600 3250
   vertex 777.9 -600 3250
   vertex 796.5 -1400 3250
  endloop
 endfacet
 facet normal 0 0 1
  outer loop
   vertex 703.5 -600 3250
   vertex 722.1 -600 3250
   vertex 703.5 200 3250
  endloop
 endfacet
 facet normal 0 0 1
  outer loop
   vertex 722.1 200 3250
   vertex 703.5 200 3250
   vertex 722.1 -600 3250
  endloop
 endfacet
 facet normal 0 0 1
  outer loop
   vertex 722.1 -600 3250
   vertex 740.7 -600 3250
   vertex 722.1 200 3250
  endloop
 endfacet
 facet normal 0 0 1
  outer loop
   vertex 740.7 200 3250
   vertex 722.1 200 3250
   vertex 740.7 -600 3250
  endloop
 endfacet
 facet normal 0 0 1
  outer loop
   vertex 740.7 -600 3250
   vertex 759.3 -600 3250
   vertex 740.7 200 3250
  endloop
 endfacet
 facet normal 0 0 1
  outer loop
   vertex 759.3 200 3250
   vertex 740.7 200 3250
   vertex 759.3 -600 3250
  endloop
 endfacet
 facet normal 0 0 1
  outer loop
   vertex 759.3 -600 3250
   vertex 777.9 -600 3250
   vertex 759.3 200 3250
  endloop
 endfacet
 facet normal 0 0 1
  outer loop
   vertex 777.9 200 3250
   vertex 759.3 200 3250
   vertex 777.9 -600 3250
  endloop
 endfacet
 facet normal 0 0 1
  outer loop
   vertex 777.9 -600 3250
   vertex 796.5 -600 3250
   vertex 777.9 200 3250
  endloop
 endfacet
 facet normal 0 0 1
  outer loop
   vertex 796.5 200 3250
   vertex 777.9 200 3250
   vertex 796.5 -600 3250
  endloop
 endfacet
 facet normal 0 0 1
  outer loop
   vertex 703.5 200 3250
   vertex 722.1 200 3250
   vertex 703.5 1000 3250
  endloop
 endfacet
 facet normal 0 0 1
  outer loop
   vertex 722.1 1000 3250
   vertex 703.5 1000 3250
   vertex 722.1 200 3250
  endloop
 endfacet
 facet normal 0 0 1
  outer loop
   vertex 722.1 200 3250
   vertex 740.7 200 3250
   vertex 722.1 1000 3250
  endloop
 endfacet
 facet normal 0 0 1
  outer loop
   vertex 740.7 1000 3250
   vertex 722.1 1000 3250
   vertex 740.7 200 3250
  endloop
 endfacet
 facet normal 0 0 1
  outer loop
   vertex 740.7 200 3250
   vertex 759.3 200 3250
   vertex 740.7 1000 3250
  endloop
 endfacet
 facet normal 0 0 1
  outer loop
   vertex 759.3 1000 3250
   vertex 740.7 1000 3250
   vertex 759.3 200 3250
  endloop
 endfacet
 facet normal 0 0 1
  outer loop
   vertex 759.3 200 3250
   vertex 777.9 200 3250
   vertex 759.3 1000 3250
  endloop
 endfacet
 facet normal 0 0 1
  outer loop
   vertex 777.9 1000 3250
   vertex 759.3 1000 3250
   vertex 777.9 200 3250
  endloop
 endfacet
 facet normal 0 0 1
  outer loop
   vertex 777.9 200 3250
   vertex 796.5 200 3250
   vertex 777.9 1000 3250
  endloop
 endfacet
 facet normal 0 0 1
  outer loop
   vertex 796.5 1000 3250
   vertex 777.9 1000 3250
   vertex 796.5 200 3250
  endloop
 endfacet
endsolid zone0
