solid zone0
 facet normal -0.766044 -0.642788 0
  outer loop
   vertex 1503.09 -696.866 -1000
   vertex 1503.09 -696.866 -150
   vertex 1245.98 -390.448 -1000
  endloop
 endfacet
 facet normal -0.766044 -0.642788 -0
  outer loop
   vertex 1245.98 -390.448 -150
   vertex 1245.98 -390.448 -1000
   vertex 1503.09 -696.866 -150
  endloop
 endfacet
 facet normal -0.766044 -0.642788 0
  outer loop
   vertex 1503.09 -696.866 -150
   vertex 1503.09 -696.866 700
   vertex 1245.98 -390.448 -150
  endloop
 endfacet
 facet normal -0.766044 -0.642788 -0
  outer loop
   vertex 1245.98 -390.448 700
   vertex 1245.98 -390.448 -150
   vertex 1503.09 -696.866 700
  endloop
 endfacet
 facet normal -0.766044 -0.642788 0
  outer loop
   vertex 1503.09 -696.866 700
   vertex 1503.09 -696.866 1550
   vertex 1245.98 -390.448 700
  endloop
 endfacet
 facet normal -0.766044 -0.642788 -0
  outer loop
   vertex 1245.98 -390.448 1550
   vertex 1245.98 -390.448 700
   vertex 1503.09 -696.866 1550
  endloop
 endfacet
 facet normal -0.766044 -0.642788 0
  outer loop
   vertex 1503.09 -696.866 1550
   vertex 1503.09 -696.866 2400
   vertex 1245.98 -390.448 1550
  endloop
 endfacet
 facet normal -0.766044 -0.642788 -0
  outer loop
   vertex 1245.98 -390.448 2400
   vertex 1245.98 -390.448 1550
   vertex 1503.09 -696.866 2400
  endloop
 endfacet
 facet normal -0.766044 -0.642788 0
  outer loop
   vertex 1503.09 -696.866 2400
   vertex 1503.09 -696.866 3250
   vertex 1245.98 -390.448 2400
  endloop
 endfacet
 facet normal -0.766044 -0.642788 -0
  outer loop
   vertex 1245.98 -390.448 3250
   vertex 1245.98 -390.448 2400
   vertex 1503.09 -696.866 3250
  endloop
 endfacet
 facet normal -0.766044 -0.642788 0
  outer loop
   vertex 1245.98 -390.448 -1000
   vertex 1245.98 -390.448 -150
   vertex 988.864 -84.03 -1000
  endloop
 endfacet
 facet normal -0.766044 -0.642788 -0
  outer loop
   vertex 988.864 -84.03 -150
   vertex 988.864 -84.03 -1000
   vertex 1245.98 -390.448 -150
  endloop
 endfacet
 facet normal -0.766044 -0.642788 0
  outer loop
   vertex 1245.98 -390.448 -150
   vertex 1245.98 -390.448 700
   vertex 988.864 -84.03 -150
  endloop
 endfacet
 facet normal -0.766044 -0.642788 -0
  outer loop
   vertex 988.864 -84.03 700
   vertex 988.864 -84.03 -150
   vertex 1245.98 -390.448 700
  endloop
 endfacet
 facet normal -0.766044 -0.642788 0
  outer loop
   vertex 1245.98 -390.448 700
   vertex 1245.98 -390.448 1550
   vertex 988.864 -84.03 700
  endloop
 endfacet
 facet normal -0.766044 -0.642788 -0
  outer loop
   vertex 988.864 -84.03 1550
   vertex 988.864 -84.03 700
   vertex 1245.98 -390.448 1550
  endloop
 endfacet
 facet normal -0.766044 -0.642788 0
  outer loop
   vertex 1245.98 -390.448 1550
   vertex 1245.98 -390.448 2400
   vertex 988.864 -84.03 1550
  endloop
 endfacet
 facet normal -0.766044 -0.642788 -0
  outer loop
   vertex 988.864 -84.03 2400
   vertex 988.864 -84.03 1550
   vertex 1245.98 -390.448 2400
  endloop
 endfacet
 facet normal -0.766044 -0.642788 0
  outer loop
   vertex 1245.98 -390.448 2400
   vertex 1245.98 -390.448 3250
   vertex 988.864 -84.03 2400
  endloop
 endfacet
 facet normal -0.766044 -0.642788 -0
  outer loop
   vertex 988.864 -84.03 3250
   vertex 988.864 -84.03 2400
   vertex 1245.98 -390.448 3250
  endloop
 endfacet
 facet normal -0.766044 -0.642788 0
  outer loop
   vertex 988.864 -84.03 -1000
   vertex 988.864 -84.03 -150
   vertex 731.749 222.388 -1000
  endloop
 endfacet
 facet normal -0.766044 -0.642788 -0
  outer loop
   vertex 731.749 222.388 -150
   vertex 731.749 222.388 -1000
   vertex 988.864 -84.03 -150
  endloop
 endfacet
 facet normal -0.766044 -0.642788 0
  outer loop
   vertex 988.864 -84.03 -150
   vertex 988.864 -84.03 700
   vertex 731.749 222.388 -150
  endloop
 endfacet
 facet normal -0.766044 -0.642788 -0
  outer loop
   vertex 731.749 222.388 700
   vertex 731.749 222.388 -150
   vertex 988.864 -84.03 700
  endloop
 endfacet
 facet normal -0.766044 -0.642788 0
  outer loop
   vertex 988.864 -84.03 700
   vertex 988.864 -84.03 1550
   vertex 731.749 222.388 700
  endloop
 endfacet
 facet normal -0.766044 -0.642788 -0
  outer loop
   vertex 731.749 222.388 1550
   vertex 731.749 222.388 700
   vertex 988.864 -84.03 1550
  endloop
 endfacet
 facet normal -0.766044 -0.642788 0
  outer loop
   vertex 988.864 -84.03 1550
   vertex 988.864 -84.03 2400
   vertex 731.749 222.388 1550
  endloop
 endfacet
 facet normal -0.766044 -0.642788 -0
  outer loop
   vertex 731.749 222.388 2400
   vertex 731.749 222.388 1550
   vertex 988.864 -84.03 2400
  endloop
 endfacet
 facet normal -0.766044 -0.642788 0
  outer loop
   vertex 988.864 -84.03 2400
   vertex 988.864 -84.03 3250
   vertex 731.749 222.388 2400
  endloop
 endfacet
 facet normal -0.766044 -0.642788 -0
  outer loop
   vertex 731.749 222.388 3250
   vertex 731.749 222.388 2400
   vertex 988.864 -84.03 3250
  endloop
 endfacet
 facet normal -0.766044 -0.642788 0
  outer loop
   vertex 731.749 222.388 -1000
   vertex 731.749 222.388 -150
   vertex 474.634 528.806 -1000
  endloop
 endfacet
 facet normal -0.766044 -0.642788 -0
  outer loop
   vertex 474.634 528.806 -150
   vertex 474.634 528.806 -1000
   vertex 731.749 222.388 -150
  endloop
 endfacet
 facet normal -0.766044 -0.642788 0
  outer loop
   vertex 731.749 222.388 -150
   vertex 731.749 222.388 700
   vertex 474.634 528.806 -150
  endloop
 endfacet
 facet normal -0.766044 -0.642788 -0
  outer loop
   vertex 474.634 528.806 700
   vertex 474.634 528.806 -150
   vertex 731.749 222.388 700
  endloop
 endfacet
 facet normal -0.766044 -0.642788 0
  outer loop
   vertex 731.749 222.388 700
   vertex 731.749 222.388 1550
   vertex 474.634 528.806 700
  endloop
 endfacet
 facet normal -0.766044 -0.642788 -0
  outer loop
   vertex 474.634 528.806 1550
   vertex 474.634 528.806 700
   vertex 731.749 222.388 1550
  endloop
 endfacet
 facet normal -0.766044 -0.642788 0
  outer loop
   vertex 731.749 222.388 1550
   vertex 731.749 222.388 2400
   vertex 474.634 528.806 1550
  endloop
 endfacet
 facet normal -0.766044 -0.642788 -0
  outer loop
   vertex 474.634 528.806 2400
   vertex 474.634 528.806 1550
   vertex 731.749 222.388 2400
  endloop
 endfacet
 facet normal -0.766044 -0.642788 0
  outer loop
   vertex 731.749 222.388 2400
   vertex 731.749 222.388 3250
   vertex 474.634 528.806 2400
  endloop
 endfacet
 facet normal -0.766044 -0.642788 -0
  outer loop
   vertex 474.634 528.806 3250
   vertex 474.634 528.806 2400
   vertex 731.749 222.388 3250
  endloop
 endfacet
 facet normal -0.766044 -0.642788 0
  outer loop
   vertex 474.634 528.806 -1000
   vertex 474.634 528.806 -150
   vertex 217.518 835.223 -1000
  endloop
 endfacet
 facet normal -0.766044 -0.642788 -0
  outer loop
   vertex 217.518 835.223 -150
   vertex 217.518 835.223 -1000
   vertex 474.634 528.806 -150
  endloop
 endfacet
 facet normal -0.766044 -0.642788 0
  outer loop
   vertex 474.634 528.806 -150
   vertex 474.634 528.806 700
   vertex 217.518 835.223 -150
  endloop
 endfacet
 facet normal -0.766044 -0.642788 -0
  outer loop
   vertex 217.518 835.223 700
   vertex 217.518 835.223 -150
   vertex 474.634 528.806 700
  endloop
 endfacet
 facet normal -0.766044 -0.642788 0
  outer loop
   vertex 474.634 528.806 700
   vertex 474.634 528.806 1550
   vertex 217.518 835.223 700
  endloop
 endfacet
 facet normal -0.766044 -0.642788 -0
  outer loop
   vertex 217.518 835.223 1550
   vertex 217.518 835.223 700
   vertex 474.634 528.806 1550
  endloop
 endfacet
 facet normal -0.766044 -0.642788 0
  outer loop
   vertex 474.634 528.806 1550
   vertex 474.634 528.806 2400
   vertex 217.518 835.223 1550
  endloop
 endfacet
 facet normal -0.766044 -0.642788 -0
  outer loop
   vertex 217.518 835.223 2400
   vertex 217.518 835.223 1550
   vertex 474.634 528.806 2400
  endloop
 endfacet
 facet normal -0.766044 -0.642788 0
  outer loop
   vertex 474.634 528.806 2400
   vertex 474.634 528.806 3250
   vertex 217.518 835.223 2400
  endloop
 endfacet
 facet normal -0.766044 -0.642788 -0
  outer loop
   vertex 217.518 835.223 3250
   vertex 217.518 835.223 2400
   vertex 474.634 528.806 3250
  endloop
 endfacet
 facet normal 0.766044 0.642788 0
  outer loop
   vertex 1574.34 -637.086 3250
   vertex 1574.34 -637.086 2400
   vertex 1317.22 -330.669 3250
  endloop
 endfacet
 facet normal 0.766044 0.642788 -0
  outer loop
   vertex 1317.22 -330.669 2400
   vertex 1317.22 -330.669 3250
   vertex 1574.34 -637.086 2400
  endloop
 endfacet
 facet normal 0.766044 0.642788 0
  outer loop
   vertex 1574.34 -637.086 2400
   vertex 1574.34 -637.086 1550
   vertex 1317.22 -330.669 2400
  endloop
 endfacet
 facet normal 0.766044 0.642788 -0
  outer loop
   vertex 1317.22 -330.669 1550
   vertex 1317.22 -330.669 2400
   vertex 1574.34 -637.086 1550
  endloop
 endfacet
 facet normal 0.766044 0.642788 0
  outer loop
   vertex 1574.34 -637.086 1550
   vertex 1574.34 -637.086 700
   vertex 1317.22 -330.669 1550
  endloop
 endfacet
 facet normal 0.766044 0.642788 -0
  outer loop
   vertex 1317.22 -330.669 700
   vertex 1317.22 -330.669 1550
   vertex 1574.34 -637.086 700
  endloop
 endfacet
 facet normal 0.766044 0.642788 0
  outer loop
   vertex 1574.34 -637.086 700
   vertex 1574.34 -637.086 -150
   vertex 1317.22 -330.669 700
  endloop
 endfacet
 facet normal 0.766044 0.642788 -0
  outer loop
   vertex 1317.22 -330.669 -150
   vertex 1317.22 -330.669 700
   vertex 1574.34 -637.086 -150
  endloop
 endfacet
 facet normal 0.766044 0.642788 0
  outer loop
   vertex 1574.34 -637.086 -150
   vertex 1574.34 -637.086 -1000
   vertex 1317.22 -330.669 -150
  endloop
 endfacet
 facet normal 0.766044 0.642788 -0
  outer loop
   vertex 1317.22 -330.669 -1000
   vertex 1317.22 -330.669 -150
   vertex 1574.34 -637.086 -1000
  endloop
 endfacet
 facet normal 0.766044 0.642788 0
  outer loop
   vertex 1317.22 -330.669 3250
   vertex 1317.22 -330.669 2400
   vertex 1060.11 -24.2508 3250
  endloop
 endfacet
 facet normal 0.766044 0.642788 -0
  outer loop
   vertex 1060.11 -24.2508 2400
   vertex 1060.11 -24.2508 3250
   vertex 1317.22 -330.669 2400
  endloop
 endfacet
 facet normal 0.766044 0.642788 0
  outer loop
   vertex 1317.22 -330.669 2400
   vertex 1317.22 -330.669 1550
   vertex 1060.11 -24.2508 2400
  endloop
 endfacet
 facet normal 0.766044 0.642788 -0
  outer loop
   vertex 1060.11 -24.2508 1550
   vertex 1060.11 -24.2508 2400
   vertex 1317.22 -330.669 1550
  endloop
 endfacet
 facet normal 0.766044 0.642788 0
  outer loop
   vertex 1317.22 -330.669 1550
   vertex 1317.22 -330.669 700
   vertex 1060.11 -24.2508 1550
  endloop
 endfacet
 facet normal 0.766044 0.642788 -0
  outer loop
   vertex 1060.11 -24.2508 700
   vertex 1060.11 -24.2508 1550
   vertex 1317.22 -330.669 700
  endloop
 endfacet
 facet normal 0.766044 0.642788 0
  outer loop
   vertex 1317.22 -330.669 700
   vertex 1317.22 -330.669 -150
   vertex 1060.11 -24.2508 700
  endloop
 endfacet
 facet normal 0.766044 0.642788 -0
  outer loop
   vertex 1060.11 -24.2508 -150
   vertex 1060.11 -24.2508 700
   vertex 1317.22 -330.669 -150
  endloop
 endfacet
 facet normal 0.766044 0.642788 0
  outer loop
   vertex 1317.22 -330.669 -150
   vertex 1317.22 -330.669 -1000
   vertex 1060.11 -24.2508 -150
  endloop
 endfacet
 facet normal 0.766044 0.642788 -0
  outer loop
   vertex 1060.11 -24.2508 -1000
   vertex 1060.11 -24.2508 -150
   vertex 1317.22 -330.669 -1000
  endloop
 endfacet
 facet normal 0.766044 0.642788 0
  outer loop
   vertex 1060.11 -24.2508 3250
   vertex 1060.11 -24.2508 2400
   vertex 802.991 282.167 3250
  endloop
 endfacet
 facet normal 0.766044 0.642788 -0
  outer loop
   vertex 802.991 282.167 2400
   vertex 802.991 282.167 3250
   vertex 1060.11 -24.2508 2400
  endloop
 endfacet
 facet normal 0.766044 0.642788 0
  outer loop
   vertex 1060.11 -24.2508 2400
   vertex 1060.11 -24.2508 1550
   vertex 802.991 282.167 2400
  endloop
 endfacet
 facet normal 0.766044 0.642788 -0
  outer loop
   vertex 802.991 282.167 1550
   vertex 802.991 282.167 2400
   vertex 1060.11 -24.2508 1550
  endloop
 endfacet
 facet normal 0.766044 0.642788 0
  outer loop
   vertex 1060.11 -24.2508 1550
   vertex 1060.11 -24.2508 700
   vertex 802.991 282.167 1550
  endloop
 endfacet
 facet normal 0.766044 0.642788 -0
  outer loop
   vertex 802.991 282.167 700
   vertex 802.991 282.167 1550
   vertex 1060.11 -24.2508 700
  endloop
 endfacet
 facet normal 0.766044 0.642788 0
  outer loop
   vertex 1060.11 -24.2508 700
   vertex 1060.11 -24.2508 -150
   vertex 802.991 282.167 700
  endloop
 endfacet
 facet normal 0.766044 0.642788 -0
  outer loop
   vertex 802.991 282.167 -150
   vertex 802.991 282.167 700
   vertex 1060.11 -24.2508 -150
  endloop
 endfacet
 facet normal 0.766044 0.642788 0
  outer loop
   vertex 1060.11 -24.2508 -150
   vertex 1060.11 -24.2508 -1000
   vertex 802.991 282.167 -150
  endloop
 endfacet
 facet normal 0.766044 0.642788 -0
  outer loop
   vertex 802.991 282.167 -1000
   vertex 802.991 282.167 -150
   vertex 1060.11 -24.2508 -1000
  endloop
 endfacet
 facet normal 0.766044 0.642788 0
  outer loop
   vertex 802.991 282.167 3250
   vertex 802.991 282.167 2400
   vertex 545.876 588.585 3250
  endloop
 endfacet
 facet normal 0.766044 0.642788 -0
  outer loop
   vertex 545.876 588.585 2400
   vertex 545.876 588.585 3250
   vertex 802.991 282.167 2400
  endloop
 endfacet
 facet normal 0.766044 0.642788 0
  outer loop
   vertex 802.991 282.167 2400
   vertex 802.991 282.167 1550
   vertex 545.876 588.585 2400
  endloop
 endfacet
 facet normal 0.766044 0.642788 -0
  outer loop
   vertex 545.876 588.585 1550
   vertex 545.876 588.585 2400
   vertex 802.991 282.167 1550
  endloop
 endfacet
 facet normal 0.766044 0.642788 0
  outer loop
   vertex 802.991 282.167 1550
   vertex 802.991 282.167 700
   vertex 545.876 588.585 1550
  endloop
 endfacet
 facet normal 0.766044 0.642788 -0
  outer loop
   vertex 545.876 588.585 700
   vertex 545.876 588.585 1550
   vertex 802.991 282.167 700
  endloop
 endfacet
 facet normal 0.766044 0.642788 0
  outer loop
   vertex 802.991 282.167 700
   vertex 802.991 282.167 -150
   vertex 545.876 588.585 700
  endloop
 endfacet
 facet normal 0.766044 0.642788 -0
  outer loop
   vertex 545.876 588.585 -150
   vertex 545.876 588.585 700
   vertex 802.991 282.167 -150
  endloop
 endfacet
 facet normal 0.766044 0.642788 0
  outer loop
   vertex 802.991 282.167 -150
   vertex 802.991 282.167 -1000
   vertex 545.876 588.585 -150
  endloop
 endfacet
 facet normal 0.766044 0.642788 -0
  outer loop
   vertex 545.876 588.585 -1000
   vertex 545.876 588.585 -150
   vertex 802.991 282.167 -1000
  endloop
 endfacet
 facet normal 0.766044 0.642788 0
  outer loop
   vertex 545.876 588.585 3250
   vertex 545.876 588.585 2400
   vertex 288.761 895.003 3250
  endloop
 endfacet
 facet normal 0.766044 0.642788 -0
  outer loop
   vertex 288.761 895.003 2400
   vertex 288.761 895.003 3250
   vertex 545.876 588.585 2400
  endloop
 endfacet
 facet normal 0.766044 0.642788 0
  outer loop
   vertex 545.876 588.585 2400
   vertex 545.876 588.585 1550
   vertex 288.761 895.003 2400
  endloop
 endfacet
 facet normal 0.766044 0.642788 -0
  outer loop
   vertex 288.761 895.003 1550
   vertex 288.761 895.003 2400
   vertex 545.876 588.585 1550
  endloop
 endfacet
 facet normal 0.766044 0.642788 0
  outer loop
   vertex 545.876 588.585 1550
   vertex 545.876 588.585 700
   vertex 288.761 895.003 1550
  endloop
 endfacet
 facet normal 0.766044 0.642788 -0
  outer loop
   vertex 288.761 895.003 700
   vertex 288.761 895.003 1550
   vertex 545.876 588.585 700
  endloop
 endfacet
 facet normal 0.766044 0.642788 0
  outer loop
   vertex 545.876 588.585 700
   vertex 545.876 588.585 -150
   vertex 288.761 895.003 700
  endloop
 endfacet
 facet normal 0.766044 0.642788 -0
  outer loop
   vertex 288.761 895.003 -150
   vertex 288.761 895.003 700
   vertex 545.876 588.585 -150
  endloop
 endfacet
 facet normal 0.766044 0.642788 0
  outer loop
   vertex 545.876 588.585 -150
   vertex 545.876 588.585 -1000
   vertex 288.761 895.003 -150
  endloop
 endfacet
 facet normal 0.766044 0.642788 -0
  outer loop
   vertex 288.761 895.003 -1000
   vertex 288.761 895.003 -150
   vertex 545.876 588.585 -1000
  endloop
 endfacet
 facet normal 0.642788 -0.766044 0
  outer loop
   vertex 1503.09 -696.866 -1000
   vertex 1517.34 -684.91 -1000
   vertex 1503.09 -696.866 -150
  endloop
 endfacet
 facet normal 0.642788 -0.766044 0
  outer loop
   vertex 1517.34 -684.91 -150
   vertex 1503.09 -696.866 -150
   vertex 1517.34 -684.91 -1000
  endloop
 endfacet
 facet normal 0.642788 -0.766044 0
  outer loop
   vertex 1517.34 -684.91 -1000
   vertex 1531.59 -672.954 -1000
   vertex 1517.34 -684.91 -150
  endloop
 endfacet
 facet normal 0.642788 -0.766044 0
  outer loop
   vertex 1531.59 -672.954 -150
   vertex 1517.34 -684.91 -150
   vertex 1531.59 -672.954 -1000
  endloop
 endfacet
 facet normal 0.642788 -0.766044 0
  outer loop
   vertex 1531.59 -672.954 -1000
   vertex 1545.84 -660.998 -1000
   vertex 1531.59 -672.954 -150
  endloop
 endfacet
 facet normal 0.642788 -0.766044 0
  outer loop
   vertex 1545.84 -660.998 -150
   vertex 1531.59 -672.954 -150
   vertex 1545.84 -660.998 -1000
  endloop
 endfacet
 facet normal 0.642788 -0.766044 0
  outer loop
   vertex 1545.84 -660.998 -1000
   vertex 1560.09 -649.042 -1000
   vertex 1545.84 -660.998 -150
  endloop
 endfacet
 facet normal 0.642788 -0.766044 0
  outer loop
   vertex 1560.09 -649.042 -150
   vertex 1545.84 -660.998 -150
   vertex 1560.09 -649.042 -1000
  endloop
 endfacet
 facet normal 0.642788 -0.766044 0
  outer loop
   vertex 1560.09 -649.042 -1000
   vertex 1574.34 -637.086 -1000
   vertex 1560.09 -649.042 -150
  endloop
 endfacet
 facet normal 0.642788 -0.766044 0
  outer loop
   vertex 1574.34 -637.086 -150
   vertex 1560.09 -649.042 -150
   vertex 1574.34 -637.086 -1000
  endloop
 endfacet
 facet normal 0.642788 -0.766044 0
  outer loop
   vertex 1503.09 -696.866 -150
   vertex 1517.34 -684.91 -150
   vertex 1503.09 -696.866 700
  endloop
 endfacet
 facet normal 0.642788 -0.766044 0
  outer loop
   vertex 1517.34 -684.91 700
   vertex 1503.09 -696.866 700
   vertex 1517.34 -684.91 -150
  endloop
 endfacet
 facet normal 0.642788 -0.766044 0
  outer loop
   vertex 1517.34 -684.91 -150
   vertex 1531.59 -672.954 -150
   vertex 1517.34 -684.91 700
  endloop
 endfacet
 facet normal 0.642788 -0.766044 0
  outer loop
   vertex 1531.59 -672.954 700
   vertex 1517.34 -684.91 700
   vertex 1531.59 -672.954 -150
  endloop
 endfacet
 facet normal 0.642788 -0.766044 0
  outer loop
   vertex 1531.59 -672.954 -150
   vertex 1545.84 -660.998 -150
   vertex 1531.59 -672.954 700
  endloop
 endfacet
 facet normal 0.642788 -0.766044 0
  outer loop
   vertex 1545.84 -660.998 700
   vertex 1531.59 -672.954 700
   vertex 1545.84 -660.998 -150
  endloop
 endfacet
 facet normal 0.642788 -0.766044 0
  outer loop
   vertex 1545.84 -660.998 -150
   vertex 1560.09 -649.042 -150
   vertex 1545.84 -660.998 700
  endloop
 endfacet
 facet normal 0.642788 -0.766044 0
  outer loop
   vertex 1560.09 -649.042 700
   vertex 1545.84 -660.998 700
   vertex 1560.09 -649.042 -150
  endloop
 endfacet
 facet normal 0.642788 -0.766044 0
  outer loop
   vertex 1560.09 -649.042 -150
   vertex 1574.34 -637.086 -150
   vertex 1560.09 -649.042 700
  endloop
 endfacet
 facet normal 0.642788 -0.766044 0
  outer loop
   vertex 1574.34 -637.086 700
   vertex 1560.09 -649.042 700
   vertex 1574.34 -637.086 -150
  endloop
 endfacet
 facet normal 0.642788 -0.766044 0
  outer loop
   vertex 1503.09 -696.866 700
   vertex 1517.34 -684.91 700
   vertex 1503.09 -696.866 1550
  endloop
 endfacet
 facet normal 0.642788 -0.766044 0
  outer loop
   vertex 1517.34 -684.91 1550
   vertex 1503.09 -696.866 1550
   vertex 1517.34 -684.91 700
  endloop
 endfacet
 facet normal 0.642788 -0.766044 0
  outer loop
   vertex 1517.34 -684.91 700
   vertex 1531.59 -672.954 700
   vertex 1517.34 -684.91 1550
  endloop
 endfacet
 facet normal 0.642788 -0.766044 0
  outer loop
   vertex 1531.59 -672.954 1550
   vertex 1517.34 -684.91 1550
   vertex 1531.59 -672.954 700
  endloop
 endfacet
 facet normal 0.642788 -0.766044 0
  outer loop
   vertex 1531.59 -672.954 700
   vertex 1545.84 -660.998 700
   vertex 1531.59 -672.954 1550
  endloop
 endfacet
 facet normal 0.642788 -0.766044 0
  outer loop
   vertex 1545.84 -660.998 1550
   vertex 1531.59 -672.954 1550
   vertex 1545.84 -660.998 700
  endloop
 endfacet
 facet normal 0.642788 -0.766044 0
  outer loop
   vertex 1545.84 -660.998 700
   vertex 1560.09 -649.042 700
   vertex 1545.84 -660.998 1550
  endloop
 endfacet
 facet normal 0.642788 -0.766044 0
  outer loop
   vertex 1560.09 -649.042 1550
   vertex 1545.84 -660.998 1550
   vertex 1560.09 -649.042 700
  endloop
 endfacet
 facet normal 0.642788 -0.766044 0
  outer loop
   vertex 1560.09 -649.042 700
   vertex 1574.34 -637.086 700
   vertex 1560.09 -649.042 1550
  endloop
 endfacet
 facet normal 0.642788 -0.766044 0
  outer loop
   vertex 1574.34 -637.086 1550
   vertex 1560.09 -649.042 1550
   vertex 1574.34 -637.086 700
  endloop
 endfacet
 facet normal 0.642788 -0.766044 0
  outer loop
   vertex 1503.09 -696.866 1550
   vertex 1517.34 -684.91 1550
   vertex 1503.09 -696.866 2400
  endloop
 endfacet
 facet normal 0.642788 -0.766044 0
  outer loop
   vertex 1517.34 -684.91 2400
   vertex 1503.09 -696.866 2400
   vertex 1517.34 -684.91 1550
  endloop
 endfacet
 facet normal 0.642788 -0.766044 0
  outer loop
   vertex 1517.34 -684.91 1550
   vertex 1531.59 -672.954 1550
   vertex 1517.34 -684.91 2400
  endloop
 endfacet
 facet normal 0.642788 -0.766044 0
  outer loop
   vertex 1531.59 -672.954 2400
   vertex 1517.34 -684.91 2400
   vertex 1531.59 -672.954 1550
  endloop
 endfacet
 facet normal 0.642788 -0.766044 0
  outer loop
   vertex 1531.59 -672.954 1550
   vertex 1545.84 -660.998 1550
   vertex 1531.59 -672.954 2400
  endloop
 endfacet
 facet normal 0.642788 -0.766044 0
  outer loop
   vertex 1545.84 -660.998 2400
   vertex 1531.59 -672.954 2400
   vertex 1545.84 -660.998 1550
  endloop
 endfacet
 facet normal 0.642788 -0.766044 0
  outer loop
   vertex 1545.84 -660.998 1550
   vertex 1560.09 -649.042 1550
   vertex 1545.84 -660.998 2400
  endloop
 endfacet
 facet normal 0.642788 -0.766044 0
  outer loop
   vertex 1560.09 -649.042 2400
   vertex 1545.84 -660.998 2400
   vertex 1560.09 -649.042 1550
  endloop
 endfacet
 facet normal 0.642788 -0.766044 0
  outer loop
   vertex 1560.09 -649.042 1550
   vertex 1574.34 -637.086 1550
   vertex 1560.09 -649.042 2400
  endloop
 endfacet
 facet normal 0.642788 -0.766044 0
  outer loop
   vertex 1574.34 -637.086 2400
   vertex 1560.09 -649.042 2400
   vertex 1574.34 -637.086 1550
  endloop
 endfacet
 facet normal 0.642788 -0.766044 0
  outer loop
   vertex 1503.09 -696.866 2400
   vertex 1517.34 -684.91 2400
   vertex 1503.09 -696.866 3250
  endloop
 endfacet
 facet normal 0.642788 -0.766044 0
  outer loop
   vertex 1517.34 -684.91 3250
   vertex 1503.09 -696.866 3250
   vertex 1517.34 -684.91 2400
  endloop
 endfacet
 facet normal 0.642788 -0.766044 0
  outer loop
   vertex 1517.34 -684.91 2400
   vertex 1531.59 -672.954 2400
   vertex 1517.34 -684.91 3250
  endloop
 endfacet
 facet normal 0.642788 -0.766044 0
  outer loop
   vertex 1531.59 -672.954 3250
   vertex 1517.34 -684.91 3250
   vertex 1531.59 -672.954 2400
  endloop
 endfacet
 facet normal 0.642788 -0.766044 0
  outer loop
   vertex 1531.59 -672.954 2400
   vertex 1545.84 -660.998 2400
   vertex 1531.59 -672.954 3250
  endloop
 endfacet
 facet normal 0.642788 -0.766044 0
  outer loop
   vertex 1545.84 -660.998 3250
   vertex 1531.59 -672.954 3250
   vertex 1545.84 -660.998 2400
  endloop
 endfacet
 facet normal 0.642788 -0.766044 0
  outer loop
   vertex 1545.84 -660.998 2400
   vertex 1560.09 -649.042 2400
   vertex 1545.84 -660.998 3250
  endloop
 endfacet
 facet normal 0.642788 -0.766044 0
  outer loop
   vertex 1560.09 -649.042 3250
   vertex 1545.84 -660.998 3250
   vertex 1560.09 -649.042 2400
  endloop
 endfacet
 facet normal 0.642788 -0.766044 0
  outer loop
   vertex 1560.09 -649.042 2400
   vertex 1574.34 -637.086 2400
   vertex 1560.09 -649.042 3250
  endloop
 endfacet
 facet normal 0.642788 -0.766044 0
  outer loop
   vertex 1574.34 -637.086 3250
   vertex 1560.09 -649.042 3250
   vertex 1574.34 -637.086 2400
  endloop
 endfacet
 facet normal -0.642788 0.766044 0
  outer loop
   vertex 217.518 835.223 3250
   vertex 231.767 847.179 3250
   vertex 217.518 835.223 2400
  endloop
 endfacet
 facet normal -0.642788 0.766044 0
  outer loop
   vertex 231.767 847.179 2400
   vertex 217.518 835.223 2400
   vertex 231.767 847.179 3250
  endloop
 endfacet
 facet normal -0.642788 0.766044 0
  outer loop
   vertex 231.767 847.179 3250
   vertex 246.015 859.135 3250
   vertex 231.767 847.179 2400
  endloop
 endfacet
 facet normal -0.642788 0.766044 0
  outer loop
   vertex 246.015 859.135 2400
   vertex 231.767 847.179 2400
   vertex 246.015 859.135 3250
  endloop
 endfacet
 facet normal -0.642788 0.766044 0
  outer loop
   vertex 246.015 859.135 3250
   vertex 260.264 871.091 3250
   vertex 246.015 859.135 2400
  endloop
 endfacet
 facet normal -0.642788 0.766044 0
  outer loop
   vertex 260.264 871.091 2400
   vertex 246.015 859.135 2400
   vertex 260.264 871.091 3250
  endloop
 endfacet
 facet normal -0.642788 0.766044 0
  outer loop
   vertex 260.264 871.091 3250
   vertex 274.512 883.047 3250
   vertex 260.264 871.091 2400
  endloop
 endfacet
 facet normal -0.642788 0.766044 0
  outer loop
   vertex 274.512 883.047 2400
   vertex 260.264 871.091 2400
   vertex 274.512 883.047 3250
  endloop
 endfacet
 facet normal -0.642788 0.766044 0
  outer loop
   vertex 274.512 883.047 3250
   vertex 288.761 895.003 3250
   vertex 274.512 883.047 2400
  endloop
 endfacet
 facet normal -0.642788 0.766044 0
  outer loop
   vertex 288.761 895.003 2400
   vertex 274.512 883.047 2400
   vertex 288.761 895.003 3250
  endloop
 endfacet
 facet normal -0.642788 0.766044 0
  outer loop
   vertex 217.518 835.223 2400
   vertex 231.767 847.179 2400
   vertex 217.518 835.223 1550
  endloop
 endfacet
 facet normal -0.642788 0.766044 0
  outer loop
   vertex 231.767 847.179 1550
   vertex 217.518 835.223 1550
   vertex 231.767 847.179 2400
  endloop
 endfacet
 facet normal -0.642788 0.766044 0
  outer loop
   vertex 231.767 847.179 2400
   vertex 246.015 859.135 2400
   vertex 231.767 847.179 1550
  endloop
 endfacet
 facet normal -0.642788 0.766044 0
  outer loop
   vertex 246.015 859.135 1550
   vertex 231.767 847.179 1550
   vertex 246.015 859.135 2400
  endloop
 endfacet
 facet normal -0.642788 0.766044 0
  outer loop
   vertex 246.015 859.135 2400
   vertex 260.264 871.091 2400
   vertex 246.015 859.135 1550
  endloop
 endfacet
 facet normal -0.642788 0.766044 0
  outer loop
   vertex 260.264 871.091 1550
   vertex 246.015 859.135 1550
   vertex 260.264 871.091 2400
  endloop
 endfacet
 facet normal -0.642788 0.766044 0
  outer loop
   vertex 260.264 871.091 2400
   vertex 274.512 883.047 2400
   vertex 260.264 871.091 1550
  endloop
 endfacet
 facet normal -0.642788 0.766044 0
  outer loop
   vertex 274.512 883.047 1550
   vertex 260.264 871.091 1550
   vertex 274.512 883.047 2400
  endloop
 endfacet
 facet normal -0.642788 0.766044 0
  outer loop
   vertex 274.512 883.047 2400
   vertex 288.761 895.003 2400
   vertex 274.512 883.047 1550
  endloop
 endfacet
 facet normal -0.642788 0.766044 0
  outer loop
   vertex 288.761 895.003 1550
   vertex 274.512 883.047 1550
   vertex 288.761 895.003 2400
  endloop
 endfacet
 facet normal -0.642788 0.766044 0
  outer loop
   vertex 217.518 835.223 1550
   vertex 231.767 847.179 1550
   vertex 217.518 835.223 700
  endloop
 endfacet
 facet normal -0.642788 0.766044 0
  outer loop
   vertex 231.767 847.179 700
   vertex 217.518 835.223 700
   vertex 231.767 847.179 1550
  endloop
 endfacet
 facet normal -0.642788 0.766044 0
  outer loop
   vertex 231.767 847.179 1550
   vertex 246.015 859.135 1550
   vertex 231.767 847.179 700
  endloop
 endfacet
 facet normal -0.642788 0.766044 0
  outer loop
   vertex 246.015 859.135 700
   vertex 231.767 847.179 700
   vertex 246.015 859.135 1550
  endloop
 endfacet
 facet normal -0.642788 0.766044 0
  outer loop
   vertex 246.015 859.135 1550
   vertex 260.264 871.091 1550
   vertex 246.015 859.135 700
  endloop
 endfacet
 facet normal -0.642788 0.766044 0
  outer loop
   vertex 260.264 871.091 700
   vertex 246.015 859.135 700
   vertex 260.264 871.091 1550
  endloop
 endfacet
 facet normal -0.642788 0.766044 0
  outer loop
   vertex 260.264 871.091 1550
   vertex 274.512 883.047 1550
   vertex 260.264 871.091 700
  endloop
 endfacet
 facet normal -0.642788 0.766044 0
  outer loop
   vertex 274.512 883.047 700
   vertex 260.264 871.091 700
   vertex 274.512 883.047 1550
  endloop
 endfacet
 facet normal -0.642788 0.766044 0
  outer loop
   vertex 274.512 883.047 1550
   vertex 288.761 895.003 1550
   vertex 274.512 883.047 700
  endloop
 endfacet
 facet normal -0.642788 0.766044 0
  outer loop
   vertex 288.761 895.003 700
   vertex 274.512 883.047 700
   vertex 288.761 895.003 1550
  endloop
 endfacet
 facet normal -0.642788 0.766044 0
  outer loop
   vertex 217.518 835.223 700
   vertex 231.767 847.179 700
   vertex 217.518 835.223 -150
  endloop
 endfacet
 facet normal -0.642788 0.766044 0
  outer loop
   vertex 231.767 847.179 -150
   vertex 217.518 835.223 -150
   vertex 231.767 847.179 700
  endloop
 endfacet
 facet normal -0.642788 0.766044 0
  outer loop
   vertex 231.767 847.179 700
   vertex 246.015 859.135 700
   vertex 231.767 847.179 -150
  endloop
 endfacet
 facet normal -0.642788 0.766044 0
  outer loop
   vertex 246.015 859.135 -150
   vertex 231.767 847.179 -150
   vertex 246.015 859.135 700
  endloop
 endfacet
 facet normal -0.642788 0.766044 0
  outer loop
   vertex 246.015 859.135 700
   vertex 260.264 871.091 700
   vertex 246.015 859.135 -150
  endloop
 endfacet
 facet normal -0.642788 0.766044 0
  outer loop
   vertex 260.264 871.091 -150
   vertex 246.015 859.135 -150
   vertex 260.264 871.091 700
  endloop
 endfacet
 facet normal -0.642788 0.766044 0
  outer loop
   vertex 260.264 871.091 700
   vertex 274.512 883.047 700
   vertex 260.264 871.091 -150
  endloop
 endfacet
 facet normal -0.642788 0.766044 0
  outer loop
   vertex 274.512 883.047 -150
   vertex 260.264 871.091 -150
   vertex 274.512 883.047 700
  endloop
 endfacet
 facet normal -0.642788 0.766044 0
  outer loop
   vertex 274.512 883.047 700
   vertex 288.761 895.003 700
   vertex 274.512 883.047 -150
  endloop
 endfacet
 facet normal -0.642788 0.766044 0
  outer loop
   vertex 288.761 895.003 -150
   vertex 274.512 883.047 -150
   vertex 288.761 895.003 700
  endloop
 endfacet
 facet normal -0.642788 0.766044 0
  outer loop
   vertex 217.518 835.223 -150
   vertex 231.767 847.179 -150
   vertex 217.518 835.223 -1000
  endloop
 endfacet
 facet normal -0.642788 0.766044 0
  outer loop
   vertex 231.767 847.179 -1000
   vertex 217.518 835.223 -1000
   vertex 231.767 847.179 -150
  endloop
 endfacet
 facet normal -0.642788 0.766044 0
  outer loop
   vertex 231.767 847.179 -150
   vertex 246.015 859.135 -150
   vertex 231.767 847.179 -1000
  endloop
 endfacet
 facet normal -0.642788 0.766044 0
  outer loop
   vertex 246.015 859.135 -1000
   vertex 231.767 847.179 -1000
   vertex 246.015 859.135 -150
  endloop
 endfacet
 facet normal -0.642788 0.766044 0
  outer loop
   vertex 246.015 859.135 -150
   vertex 260.264 871.091 -150
   vertex 246.015 859.135 -1000
  endloop
 endfacet
 facet normal -0.642788 0.766044 0
  outer loop
   vertex 260.264 871.091 -1000
   vertex 246.015 859.135 -1000
   vertex 260.264 871.091 -150
  endloop
 endfacet
 facet normal -0.642788 0.766044 0
  outer loop
   vertex 260.264 871.091 -150
   vertex 274.512 883.047 -150
   vertex 260.264 871.091 -1000
  endloop
 endfacet
 facet normal -0.642788 0.766044 0
  outer loop
   vertex 274.512 883.047 -1000
   vertex 260.264 871.091 -1000
   vertex 274.512 883.047 -150
  endloop
 endfacet
 facet normal -0.642788 0.766044 0
  outer loop
   vertex 274.512 883.047 -150
   vertex 288.761 895.003 -150
   vertex 274.512 883.047 -1000
  endloop
 endfacet
 facet normal -0.642788 0.766044 0
  outer loop
   vertex 288.761 895.003 -1000
   vertex 274.512 883.047 -1000
   vertex 288.761 895.003 -150
  endloop
 endfacet
 facet normal -0 0 -1
  outer loop
   vertex 1574.34 -637.086 -1000
   vertex 1560.09 -649.042 -1000
   vertex 1317.22 -330.669 -1000
  endloop
 endfacet
 facet normal 0 0 -1
  outer loop
   vertex 1302.97 -342.624 -1000
   vertex 1317.22 -330.669 -1000
   vertex 1560.09 -649.042 -1000
  endloop
 endfacet
 facet normal -0 0 -1
  outer loop
   vertex 1560.09 -649.042 -1000
   vertex 1545.84 -660.998 -1000
   vertex 1302.97 -342.624 -1000
  endloop
 endfacet
 facet normal 0 0 -1
  outer loop
   vertex 1288.72 -354.58 -1000
   vertex 1302.97 -342.624 -1000
   vertex 1545.84 -660.998 -1000
  endloop
 endfacet
 facet normal -0 0 -1
  outer loop
   vertex 1545.84 -660.998 -1000
   vertex 1531.59 -672.954 -1000
   vertex 1288.72 -354.58 -1000
  endloop
 endfacet
 facet normal 0 0 -1
  outer loop
   vertex 1274.48 -366.536 -1000
   vertex 1288.72 -354.58 -1000
   vertex 1531.59 -672.954 -1000
  endloop
 endfacet
 facet normal -0 0 -1
  outer loop
   vertex 1531.59 -672.954 -1000
   vertex 1517.34 -684.91 -1000
   vertex 1274.48 -366.536 -1000
  endloop
 endfacet
 facet normal 0 0 -1
  outer loop
   vertex 1260.23 -378.492 -1000
   vertex 1274.48 -366.536 -1000
   vertex 1517.34 -684.91 -1000
  endloop
 endfacet
 facet normal -0 0 -1
  outer loop
   vertex 1517.34 -684.91 -1000
   vertex 1503.09 -696.866 -1000
   vertex 1260.23 -378.492 -1000
  endloop
 endfacet
 facet normal 0 0 -1
  outer loop
   vertex 1245.98 -390.448 -1000
   vertex 1260.23 -378.492 -1000
   vertex 1503.09 -696.866 -1000
  endloop
 endfacet
 facet normal -0 0 -1
  outer loop
   vertex 1317.22 -330.669 -1000
   vertex 1302.97 -342.624 -1000
   vertex 1060.11 -24.2508 -1000
  endloop
 endfacet
 facet normal 0 0 -1
  outer loop
   vertex 1045.86 -36.2066 -1000
   vertex 1060.11 -24.2508 -1000
   vertex 1302.97 -342.624 -1000
  endloop
 endfacet
 facet normal -0 0 -1
  outer loop
   vertex 1302.97 -342.624 -1000
   vertex 1288.72 -354.58 -1000
   vertex 1045.86 -36.2066 -1000
  endloop
 endfacet
 facet normal 0 0 -1
  outer loop
   vertex 1031.61 -48.1625 -1000
   vertex 1045.86 -36.2066 -1000
   vertex 1288.72 -354.58 -1000
  endloop
 endfacet
 facet normal -0 0 -1
  outer loop
   vertex 1288.72 -354.58 -1000
   vertex 1274.48 -366.536 -1000
   vertex 1031.61 -48.1625 -1000
  endloop
 endfacet
 facet normal 0 0 -1
  outer loop
   vertex 1017.36 -60.1183 -1000
   vertex 1031.61 -48.1625 -1000
   vertex 1274.48 -366.536 -1000
  endloop
 endfacet
 facet normal -0 0 -1
  outer loop
   vertex 1274.48 -366.536 -1000
   vertex 1260.23 -378.492 -1000
   vertex 1017.36 -60.1183 -1000
  endloop
 endfacet
 facet normal 0 0 -1
  outer loop
   vertex 1003.11 -72.0742 -1000
   vertex 1017.36 -60.1183 -1000
   vertex 1260.23 -378.492 -1000
  endloop
 endfacet
 facet normal -0 0 -1
  outer loop
   vertex 1260.23 -378.492 -1000
   vertex 1245.98 -390.448 -1000
   vertex 1003.11 -72.0742 -1000
  endloop
 endfacet
 facet normal 0 0 -1
  outer loop
   vertex 988.864 -84.03 -1000
   vertex 1003.11 -72.0742 -1000
   vertex 1245.98 -390.448 -1000
  endloop
 endfacet
 facet normal -0 0 -1
  outer loop
   vertex 1060.11 -24.2508 -1000
   vertex 1045.86 -36.2066 -1000
   vertex 802.991 282.167 -1000
  endloop
 endfacet
 facet normal 0 0 -1
  outer loop
   vertex 788.742 270.211 -1000
   vertex 802.991 282.167 -1000
   vertex 1045.86 -36.2066 -1000
  endloop
 endfacet
 facet normal -0 0 -1
  outer loop
   vertex 1045.86 -36.2066 -1000
   vertex 1031.61 -48.1625 -1000
   vertex 788.742 270.211 -1000
  endloop
 endfacet
 facet normal 0 0 -1
  outer loop
   vertex 774.494 258.255 -1000
   vertex 788.742 270.211 -1000
   vertex 1031.61 -48.1625 -1000
  endloop
 endfacet
 facet normal -0 0 -1
  outer loop
   vertex 1031.61 -48.1625 -1000
   vertex 1017.36 -60.1183 -1000
   vertex 774.494 258.255 -1000
  endloop
 endfacet
 facet normal 0 0 -1
  outer loop
   vertex 760.245 246.299 -1000
   vertex 774.494 258.255 -1000
   vertex 1017.36 -60.1183 -1000
  endloop
 endfacet
 facet normal -0 0 -1
  outer loop
   vertex 1017.36 -60.1183 -1000
   vertex 1003.11 -72.0742 -1000
   vertex 760.245 246.299 -1000
  endloop
 endfacet
 facet normal 0 0 -1
  outer loop
   vertex 745.997 234.344 -1000
   vertex 760.245 246.299 -1000
   vertex 1003.11 -72.0742 -1000
  endloop
 endfacet
 facet normal -0 0 -1
  outer loop
   vertex 1003.11 -72.0742 -1000
   vertex 988.864 -84.03 -1000
   vertex 745.997 234.344 -1000
  endloop
 endfacet
 facet normal 0 0 -1
  outer loop
   vertex 731.749 222.388 -1000
   vertex 745.997 234.344 -1000
   vertex 988.864 -84.03 -1000
  endloop
 endfacet
 facet normal -0 0 -1
  outer loop
   vertex 802.991 282.167 -1000
   vertex 788.742 270.211 -1000
   vertex 545.876 588.585 -1000
  endloop
 endfacet
 facet normal 0 0 -1
  outer loop
   vertex 531.627 576.629 -1000
   vertex 545.876 588.585 -1000
   vertex 788.742 270.211 -1000
  endloop
 endfacet
 facet normal -0 0 -1
  outer loop
   vertex 788.742 270.211 -1000
   vertex 774.494 258.255 -1000
   vertex 531.627 576.629 -1000
  endloop
 endfacet
 facet normal 0 0 -1
  outer loop
   vertex 517.379 564.673 -1000
   vertex 531.627 576.629 -1000
   vertex 774.494 258.255 -1000
  endloop
 endfacet
 facet normal -0 0 -1
  outer loop
   vertex 774.494 258.255 -1000
   vertex 760.245 246.299 -1000
   vertex 517.379 564.673 -1000
  endloop
 endfacet
 facet normal 0 0 -1
  outer loop
   vertex 503.13 552.717 -1000
   vertex 517.379 564.673 -1000
   vertex 760.245 246.299 -1000
  endloop
 endfacet
 facet normal -0 0 -1
  outer loop
   vertex 760.245 246.299 -1000
   vertex 745.997 234.344 -1000
   vertex 503.13 552.717 -1000
  endloop
 endfacet
 facet normal 0 0 -1
  outer loop
   vertex 488.882 540.761 -1000
   vertex 503.13 552.717 -1000
   vertex 745.997 234.344 -1000
  endloop
 endfacet
 facet normal -0 0 -1
  outer loop
   vertex 745.997 234.344 -1000
   vertex 731.749 222.388 -1000
   vertex 488.882 540.761 -1000
  endloop
 endfacet
 facet normal 0 0 -1
  outer loop
   vertex 474.634 528.806 -1000
   vertex 488.882 540.761 -1000
   vertex 731.749 222.388 -1000
  endloop
 endfacet
 facet normal -0 0 -1
  outer loop
   vertex 545.876 588.585 -1000
   vertex 531.627 576.629 -1000
   vertex 288.761 895.003 -1000
  endloop
 endfacet
 facet normal 0 0 -1
  outer loop
   vertex 274.512 883.047 -1000
   vertex 288.761 895.003 -1000
   vertex 531.627 576.629 -1000
  endloop
 endfacet
 facet normal -0 0 -1
  outer loop
   vertex 531.627 576.629 -1000
   vertex 517.379 564.673 -1000
   vertex 274.512 883.047 -1000
  endloop
 endfacet
 facet normal 0 0 -1
  outer loop
   vertex 260.264 871.091 -1000
   vertex 274.512 883.047 -1000
   vertex 517.379 564.673 -1000
  endloop
 endfacet
 facet normal -0 0 -1
  outer loop
   vertex 517.379 564.673 -1000
   vertex 503.13 552.717 -1000
   vertex 260.264 871.091 -1000
  endloop
 endfacet
 facet normal 0 0 -1
  outer loop
   vertex 246.015 859.135 -1000
   vertex 260.264 871.091 -1000
   vertex 503.13 552.717 -1000
  endloop
 endfacet
 facet normal -0 0 -1
  outer loop
   vertex 503.13 552.717 -1000
   vertex 488.882 540.761 -1000
   vertex 246.015 859.135 -1000
  endloop
 endfacet
 facet normal 0 0 -1
  outer loop
   vertex 231.767 847.179 -1000
   vertex 246.015 859.135 -1000
   vertex 488.882 540.761 -1000
  endloop
 endfacet
 facet normal -0 0 -1
  outer loop
   vertex 488.882 540.761 -1000
   vertex 474.634 528.806 -1000
   vertex 231.767 847.179 -1000
  endloop
 endfacet
 facet normal 0 0 -1
  outer loop
   vertex 217.518 835.223 -1000
   vertex 231.767 847.179 -1000
   vertex 474.634 528.806 -1000
  endloop
 endfacet
 facet normal 0 -0 1
  outer loop
   vertex 1503.09 -696.866 3250
   vertex 1517.34 -684.91 3250
   vertex 1245.98 -390.448 3250
  endloop
 endfacet
 facet normal 0 0 1
  outer loop
   vertex 1260.23 -378.492 3250
   vertex 1245.98 -390.448 3250
   vertex 1517.34 -684.91 3250
  endloop
 endfacet
 facet normal 0 -0 1
  outer loop
   vertex 1517.34 -684.91 3250
   vertex 1531.59 -672.954 3250
   vertex 1260.23 -378.492 3250
  endloop
 endfacet
 facet normal 0 0 1
  outer loop
   vertex 1274.48 -366.536 3250
   vertex 1260.23 -378.492 3250
   vertex 1531.59 -672.954 3250
  endloop
 endfacet
 facet normal 0 -0 1
  outer loop
   vertex 1531.59 -672.954 3250
   vertex 1545.84 -660.998 3250
   vertex 1274.48 -366.536 3250
  endloop
 endfacet
 facet normal 0 0 1
  outer loop
   vertex 1288.72 -354.58 3250
   vertex 1274.48 -366.536 3250
   vertex 1545.84 -660.998 3250
  endloop
 endfacet
 facet normal 0 -0 1
  outer loop
   vertex 1545.84 -660.998 3250
   vertex 1560.09 -649.042 3250
   vertex 1288.72 -354.58 3250
  endloop
 endfacet
 facet normal 0 0 1
  outer loop
   vertex 1302.97 -342.624 3250
   vertex 1288.72 -354.58 3250
   vertex 1560.09 -649.042 3250
  endloop
 endfacet
 facet normal 0 -0 1
  outer loop
   vertex 1560.09 -649.042 3250
   vertex 1574.34 -637.086 3250
   vertex 1302.97 -342.624 3250
  endloop
 endfacet
 facet normal 0 0 1
  outer loop
   vertex 1317.22 -330.669 3250
   vertex 1302.97 -342.624 3250
   vertex 1574.34 -637.086 3250
  endloop
 endfacet
 facet normal 0 -0 1
  outer loop
   vertex 1245.98 -390.448 3250
   vertex 1260.23 -378.492 3250
   vertex 988.864 -84.03 3250
  endloop
 endfacet
 facet normal 0 0 1
  outer loop
   vertex 1003.11 -72.0742 3250
   vertex 988.864 -84.03 3250
   vertex 1260.23 -378.492 3250
  endloop
 endfacet
 facet normal 0 -0 1
  outer loop
   vertex 1260.23 -378.492 3250
   vertex 1274.48 -366.536 3250
   vertex 1003.11 -72.0742 3250
  endloop
 endfacet
 facet normal 0 0 1
  outer loop
   vertex 1017.36 -60.1183 3250
   vertex 1003.11 -72.0742 3250
   vertex 1274.48 -366.536 3250
  endloop
 endfacet
 facet normal 0 -0 1
  outer loop
   vertex 1274.48 -366.536 3250
   vertex 1288.72 -354.58 3250
   vertex 1017.36 -60.1183 3250
  endloop
 endfacet
 facet normal 0 0 1
  outer loop
   vertex 1031.61 -48.1625 3250
   vertex 1017.36 -60.1183 3250
   vertex 1288.72 -354.58 3250
  endloop
 endfacet
 facet normal 0 -0 1
  outer loop
   vertex 1288.72 -354.58 3250
   vertex 1302.97 -342.624 3250
   vertex 1031.61 -48.1625 3250
  endloop
 endfacet
 facet normal 0 0 1
  outer loop
   vertex 1045.86 -36.2066 3250
   vertex 1031.61 -48.1625 3250
   vertex 1302.97 -342.624 3250
  endloop
 endfacet
 facet normal 0 -0 1
  outer loop
   vertex 1302.97 -342.624 3250
   vertex 1317.22 -330.669 3250
   vertex 1045.86 -36.2066 3250
  endloop
 endfacet
 facet normal 0 0 1
  outer loop
   vertex 1060.11 -24.2508 3250
   vertex 1045.86 -36.2066 3250
   vertex 1317.22 -330.669 3250
  endloop
 endfacet
 facet normal 0 -0 1
  outer loop
   vertex 988.864 -84.03 3250
   vertex 1003.11 -72.0742 3250
   vertex 731.749 222.388 3250
  endloop
 endfacet
 facet normal 0 0 1
  outer loop
   vertex 745.997 234.344 3250
   vertex 731.749 222.388 3250
   vertex 1003.11 -72.0742 3250
  endloop
 endfacet
 facet normal 0 -0 1
  outer loop
   vertex 1003.11 -72.0742 3250
   vertex 1017.36 -60.1183 3250
   vertex 745.997 234.344 3250
  endloop
 endfacet
 facet normal 0 0 1
  outer loop
   vertex 760.245 246.299 3250
   vertex 745.997 234.344 3250
   vertex 1017.36 -60.1183 3250
  endloop
 endfacet
 facet normal 0 -0 1
  outer loop
   vertex 1017.36 -60.1183 3250
   vertex 1031.61 -48.1625 3250
   vertex 760.245 246.299 3250
  endloop
 endfacet
 facet normal 0 0 1
  outer loop
   vertex 774.494 258.255 3250
   vertex 760.245 246.299 3250
   vertex 1031.61 -48.1625 3250
  endloop
 endfacet
 facet normal 0 -0 1
  outer loop
   vertex 1031.61 -48.1625 3250
   vertex 1045.86 -36.2066 3250
   vertex 774.494 258.255 3250
  endloop
 endfacet
 facet normal 0 0 1
  outer loop
   vertex 788.742 270.211 3250
   vertex 774.494 258.255 3250
   vertex 1045.86 -36.2066 3250
  endloop
 endfacet
 facet normal 0 -0 1
  outer loop
   vertex 1045.86 -36.2066 3250
   vertex 1060.11 -24.2508 3250
   vertex 788.742 270.211 3250
  endloop
 endfacet
 facet normal 0 0 1
  outer loop
   vertex 802.991 282.167 3250
   vertex 788.742 270.211 3250
   vertex 1060.11 -24.2508 3250
  endloop
 endfacet
 facet normal 0 -0 1
  outer loop
   vertex 731.749 222.388 3250
   vertex 745.997 234.344 3250
   vertex 474.634 528.806 3250
  endloop
 endfacet
 facet normal 0 0 1
  outer loop
   vertex 488.882 540.761 3250
   vertex 474.634 528.806 3250
   vertex 745.997 234.344 3250
  endloop
 endfacet
 facet normal 0 -0 1
  outer loop
   vertex 745.997 234.344 3250
   vertex 760.245 246.299 3250
   vertex 488.882 540.761 3250
  endloop
 endfacet
 facet normal 0 0 1
  outer loop
   vertex 503.13 552.717 3250
   vertex 488.882 540.761 3250
   vertex 760.245 246.299 3250
  endloop
 endfacet
 facet normal 0 -0 1
  outer loop
   vertex 760.245 246.299 3250
   vertex 774.494 258.255 3250
   vertex 503.13 552.717 3250
  endloop
 endfacet
 facet normal 0 0 1
  outer loop
   vertex 517.379 564.673 3250
   vertex 503.13 552.717 3250
   vertex 774.494 258.255 3250
  endloop
 endfacet
 facet normal 0 -0 1
  outer loop
   vertex 774.494 258.255 3250
   vertex 788.742 270.211 3250
   vertex 517.379 564.673 3250
  endloop
 endfacet
 facet normal 0 0 1
  outer loop
   vertex 531.627 576.629 3250
   vertex 517.379 564.673 3250
   vertex 788.742 270.211 3250
  endloop
 endfacet
 facet normal 0 -0 1
  outer loop
   vertex 788.742 270.211 3250
   vertex 802.991 282.167 3250
   vertex 531.627 576.629 3250
  endloop
 endfacet
 facet normal 0 0 1
  outer loop
   vertex 545.876 588.585 3250
   vertex 531.627 576.629 3250
   vertex 802.991 282.167 3250
  endloop
 endfacet
 facet normal 0 -0 1
  outer loop
   vertex 474.634 528.806 3250
   vertex 488.882 540.761 3250
   vertex 217.518 835.223 3250
  endloop
 endfacet
 facet normal 0 0 1
  outer loop
   vertex 231.767 847.179 3250
   vertex 217.518 835.223 3250
   vertex 488.882 540.761 3250
  endloop
 endfacet
 facet normal 0 -0 1
  outer loop
   vertex 488.882 540.761 3250
   vertex 503.13 552.717 3250
   vertex 231.767 847.179 3250
  endloop
 endfacet
 facet normal 0 0 1
  outer loop
   vertex 246.015 859.135 3250
   vertex 231.767 847.179 3250
   vertex 503.13 552.717 3250
  endloop
 endfacet
 facet normal 0 -0 1
  outer loop
   vertex 503.13 552.717 3250
   vertex 517.379 564.673 3250
   vertex 246.015 859.135 3250
  endloop
 endfacet
 facet normal 0 0 1
  outer loop
   vertex 260.264 871.091 3250
   vertex 246.015 859.135 3250
   vertex 517.379 564.673 3250
  endloop
 endfacet
 facet normal 0 -0 1
  outer loop
   vertex 517.379 564.673 3250
   vertex 531.627 576.629 3250
   vertex 260.264 871.091 3250
  endloop
 endfacet
 facet normal 0 0 1
  outer loop
   vertex 274.512 883.047 3250
   vertex 260.264 871.091 3250
   vertex 531.627 576.629 3250
  endloop
 endfacet
 facet normal 0 -0 1
  outer loop
   vertex 531.627 576.629 3250
   vertex 545.876 588.585 3250
   vertex 274.512 883.047 3250
  endloop
 endfacet
 facet normal 0 0 1
  outer loop
   vertex 288.761 895.003 3250
   vertex 274.512 883.047 3250
   vertex 545.876 588.585 3250
  endloop
 endfacet
endsolid zone0
